<svg width="512" height="446" viewBox="0 0 512 446" fill="none" xmlns="http://www.w3.org/2000/svg">
<path d="M237.823 368.202C237.823 368.202 228.461 360.445 250.426 361.354C272.13 362.254 295.324 365.286 285.72 370.746C276.11 376.206 246.828 372.864 237.823 368.202Z" fill="white"/>
<path d="M191.199 360.499C191.199 360.499 177.31 348.989 209.895 350.338C242.094 351.673 276.502 356.17 262.25 364.276C247.999 372.376 204.551 367.419 191.199 360.499Z" fill="white"/>
<path d="M199.952 376.743C199.952 376.743 193.588 371.471 208.517 372.086C223.267 372.695 239.033 374.76 232.504 378.469C225.975 382.183 206.07 379.915 199.952 376.743Z" fill="white"/>
<path d="M22.1942 354.874C16.8359 351.812 59.6929 352.959 81.1602 351.3C82.64 351.184 84.2939 351.44 86.0639 351.479C96.0069 349.941 149.764 348.006 170.656 349.133C191.471 350.255 214.021 357.074 193.55 362.515C178.2 366.591 168.659 368.734 133.921 366.736C126.822 366.325 107.584 362.964 92.2251 359.661C86.7942 359.632 69.3312 360.841 63.0636 360.479C49.1019 359.671 26.7594 357.48 22.1942 354.874Z" fill="white"/>
<path d="M34.3027 334.291C34.3027 334.291 28.8573 318.506 19.0594 319.048C9.26158 319.594 14.707 329.392 14.707 329.392C14.707 329.392 10.3545 322.859 4.90912 328.304C-0.536274 333.749 4.90912 337.555 4.90912 337.555C4.90912 337.555 0.556732 334.833 0.0102577 339.732C-0.536217 344.631 21.2405 351.706 29.4037 349.53C37.567 347.353 34.3027 334.291 34.3027 334.291Z" fill="#288453"/>
<path d="M278.939 319.29C341.518 320.562 299.986 331.153 299.986 331.153C299.986 331.153 525.153 328.014 460.693 340.718C460.693 340.718 500.378 347.716 511.201 354.491C518.237 358.897 452.322 374.967 415.543 373.623C363.121 371.708 356.365 365.716 356.616 360.614C356.93 354.312 393.752 353.732 382.634 350.666C366.245 346.144 354.672 352.591 291.566 345.308C251.771 340.718 221.545 342.246 221.545 342.246C221.545 342.246 252.863 351.846 222.251 349.38C162.903 344.597 150.436 350.56 143.104 340.713C132.233 326.118 201.447 317.713 278.939 319.29Z" fill="white"/>
<path d="M39.7919 302.602C39.7919 302.602 37.4948 311.404 56.2441 317.526C56.249 317.521 30.613 317.139 39.7919 302.602Z" fill="#FFE6C5"/>
<path d="M174.543 313.657C174.543 313.657 164.344 325.321 145.779 322.748C137.751 322.076 113.735 314.232 113.735 314.232C113.735 314.232 157.361 322.381 174.543 313.657Z" fill="#634874"/>
<path d="M70.2773 0C70.2532 0.087049 70.2338 0.174095 70.2096 0.261144C70.2338 0.174095 70.2532 0.087049 70.2773 0Z" fill="#F6BE4A"/>
<path d="M69.9482 1.01083C69.8999 1.14624 69.8418 1.27682 69.7886 1.40739C69.8418 1.27682 69.8999 1.14624 69.9482 1.01083Z" fill="#F6BE4A"/>
<path d="M31.8892 356.528C27.9381 354.337 42.2867 334.63 52.5198 329.804C62.7529 324.977 56.2871 348.495 48.6655 353.892C41.0439 359.294 35.8403 358.723 31.8892 356.528Z" fill="#33A86D"/>
<path d="M39.8501 357.891C39.8501 357.891 59.6683 348.258 70.0513 348.611C80.4295 348.964 67.701 357.103 67.701 357.103C67.701 357.103 78.6547 354.85 81.4112 360.604C84.1678 366.359 39.8501 357.891 39.8501 357.891Z" fill="#33A86D"/>
<path d="M20.5054 353.684C19.5092 351.551 20.2685 345.264 29.37 346.304C38.4714 347.344 40.6525 355.705 37.4704 357.741C34.2882 359.773 21.5017 355.817 20.5054 353.684Z" fill="#33A86D"/>
<path d="M54.2756 380.718C54.2756 380.718 57.6076 378.561 63.9283 379.383C70.1717 380.195 72.4882 381.588 68.0052 382.86C65.1277 383.673 56.4857 383.735 54.2756 380.718Z" fill="#33A86D"/>
<path d="M78.3791 368.091C78.3791 368.091 81.7111 365.934 88.0318 366.756C94.2752 367.568 96.5917 368.961 92.1087 370.233C89.2312 371.045 80.594 371.108 78.3791 368.091Z" fill="#288453"/>
<path d="M64.0305 374.977C64.0305 374.977 67.3625 372.82 73.6833 373.642C79.9266 374.455 82.243 375.848 77.76 377.12C74.8826 377.932 66.2454 378 64.0305 374.977Z" fill="#33A86D"/>
<path d="M77.8079 377.85C77.8079 377.85 81.1399 375.693 87.4606 376.515C93.7039 377.328 96.0204 378.72 91.5374 379.992C88.6599 380.805 80.0179 380.868 77.8079 377.85Z" fill="#33A86D"/>
<path d="M125.491 373.724C125.491 373.724 129.031 371.122 136.072 371.606C143.027 372.085 145.677 373.477 140.807 375.175C137.683 376.268 128.136 376.916 125.491 373.724Z" fill="#288453"/>
<path d="M99.2791 375.301C99.2791 375.301 102.819 372.699 109.86 373.183C116.815 373.661 119.465 375.054 114.595 376.752C111.466 377.845 101.924 378.493 99.2791 375.301Z" fill="#288453"/>
<path d="M114.029 369.614C114.029 369.614 116.805 367.573 122.318 367.955C127.768 368.332 129.843 369.421 126.027 370.75C123.58 371.606 116.104 372.114 114.029 369.614Z" fill="#288453"/>
<path d="M113.459 375.862C113.459 375.862 116.999 373.261 124.041 373.744C130.995 374.223 133.645 375.616 128.775 377.313C125.646 378.406 116.1 379.054 113.459 375.862Z" fill="#288453"/>
<path d="M372.143 103.879C364.105 104.455 344.573 121.739 330.819 136.377C313.027 155.315 291.173 175.414 282.226 179.423C271.127 184.399 258.694 190.904 253.529 190.904C253.529 190.904 277.443 216.375 287.202 224.983C296.962 233.592 291.792 216.375 304.419 224.983C317.046 233.592 338.474 259.015 338.474 259.015C338.474 259.015 349.573 255.736 366.025 240.647C387.517 220.941 421.698 134.085 416.915 118.972C412.127 103.855 379.798 101.775 372.143 103.879Z" fill="#C83201"/>
<path d="M372.143 103.879C364.105 104.455 343.997 120.805 330.243 135.444C312.451 154.382 288.397 174.843 279.416 178.785C269.149 183.287 248.165 192.268 243.001 192.268L253.142 199.705C253.142 199.705 276.166 198.322 294.466 178.277C316.605 154.029 353.301 111.965 372.143 103.879Z" fill="#003366"/>
<path d="M408.858 115.462C408.858 115.462 429.242 115.771 438.74 112.372C448.238 108.972 445.564 72.8176 426.67 68.0541C405.081 62.6087 379.141 74.2394 364.792 83.5875C350.444 92.9356 356.271 106.917 377.037 113.503C398.108 120.182 408.858 115.462 408.858 115.462Z" fill="#003366"/>
<path d="M363.655 96.828C363.655 108.435 401.391 109.02 412.896 109.02C424.401 109.02 433.729 99.6088 433.729 88.0022C433.729 76.3957 424.401 66.9847 412.896 66.9847C401.391 66.9847 363.655 85.2215 363.655 96.828Z" fill="#992C29"/>
<path d="M294.152 225.849C294.853 224.829 305.952 210.799 309.777 206.974C313.602 203.149 285.036 223.044 285.036 223.044C285.036 223.044 288.015 226.241 290.457 227.189C292.749 228.084 293.45 226.87 294.152 225.849Z" fill="#C93F37"/>
<path d="M310.445 198.081L315.421 197.123L322.148 202.128C323.313 200.74 321.442 191.068 319.633 190.943C316.828 190.744 310.928 190.338 307.34 192.422C304.849 193.868 296.894 200.407 298.422 201.94C298.761 202.278 300.366 202.133 300.366 202.133C300.729 202.312 302.088 202.008 302.601 202.196C303.108 202.39 304.095 202.269 304.912 201.925L310.445 198.081Z" fill="#F6874E"/>
<path d="M355.318 123.634C355.318 123.634 345.753 145.836 343.717 150.629C339.925 159.551 347.731 164.015 353.084 159.551C358.438 155.088 369.145 134.341 371.152 129.437C373.163 124.529 360.894 117.163 355.318 123.634Z" fill="#F5AF8D"/>
<path d="M352.562 129.665C352.562 129.665 345.429 146.277 343.673 150.755C341.599 156.05 347.721 159.14 350.463 155.9C353.81 151.949 356.523 124.568 352.562 129.665Z" fill="#F5AF8D"/>
<path d="M375.65 103.753C372.245 101.645 364.251 105.808 359.584 114.6C354.414 124.34 352.983 128.412 352.983 128.412C352.983 128.412 358.632 127.44 361.417 129.95C365.944 134.027 369.474 138.631 369.474 138.631C369.474 138.631 374.697 128.059 377.482 120.95C380.06 114.344 380.046 106.481 375.65 103.753Z" fill="#C93F37"/>
<path d="M318.821 187.296C316.519 193.457 322.279 195.842 325.722 193.158C329.165 190.478 335.946 180.763 343.867 172.15C352.988 162.241 356.301 157.38 350.492 153.139C344.684 148.893 344.414 149.314 335.061 162.632C328.633 171.782 319.909 184.395 318.821 187.296Z" fill="#F5AF8D"/>
<path d="M326.098 177.914C330.436 184.206 347.367 160.804 347.367 160.804C352.755 153.87 352.184 153.855 349.568 152.162C344.272 149.483 344.18 149.865 337.927 158.507C332.999 165.317 324.735 175.932 326.098 177.914Z" fill="#F5AF8D"/>
<path d="M315.875 193.041L308.007 193.718C307.61 193.752 307.248 193.95 307.001 194.265L297.759 200.648C297.227 201.33 296.212 201.388 295.607 200.769C295.162 200.31 295.07 199.613 295.39 199.057L303.592 191.494C303.751 191.213 304.003 190.996 304.298 190.879L318.714 185.086C319.231 184.878 323.178 183.417 325.775 186.019C328.371 188.621 327.022 191.411 326.761 191.972L325.397 198.061C325.383 198.09 325.373 198.114 325.359 198.138L320.687 206.776C320.436 207.245 319.942 207.53 319.41 207.525L318.366 207.511C317.403 207.501 316.726 206.563 317.021 205.644L318.685 200.431C318.762 200.184 318.772 199.918 318.714 199.662L317.389 194.124C317.224 193.447 316.581 192.983 315.875 193.041Z" fill="#F5AF8D"/>
<path d="M336.048 228.746C336.048 228.746 337.479 235.256 372.497 239.168C386.787 240.764 400.754 239.69 411.935 239.115C421.341 238.631 438.702 234.975 446.619 232.098C454.487 229.24 461.442 223.257 442.89 210.219C424.305 197.157 344.685 204.639 336.048 228.746Z" fill="#EC5E4D"/>
<path d="M428.078 218.145C428.078 218.145 433.46 215.297 431.738 211.853C430.017 208.41 425.331 208.217 425.331 208.217L428.078 218.145Z" fill="#C93F37"/>
<path d="M361.259 80.4379C362.323 95.4635 375.54 97.7316 390.817 99.0954C400 99.9175 409.784 96.3001 416.133 90.0278C420.346 85.8688 423.049 80.5394 423.059 74.5669C423.088 59.5897 406.19 46.218 390.913 44.8542C375.641 43.4904 360.117 64.2951 361.259 80.4379Z" fill="#273150"/>
<path d="M390.296 49.3348C385.915 42.9597 385.393 35.7109 389.129 33.1442C392.864 30.5774 399.443 33.6647 403.824 40.0398C408.204 46.4148 408.727 53.6636 404.991 56.2304C401.255 58.7971 394.676 55.7098 390.296 49.3348Z" fill="#273150"/>
<path d="M402.741 40.9538C402.151 33.44 404.798 27.1033 408.653 26.8005C412.509 26.4977 416.113 32.3434 416.703 39.8572C417.293 47.3711 414.646 53.7077 410.791 54.0106C406.935 54.3134 403.331 48.4677 402.741 40.9538Z" fill="#273150"/>
<path d="M402.758 63.8518C399.754 55.6197 402.301 47.1273 408.448 44.8835C414.595 42.6397 422.014 47.4941 425.019 55.7262C428.024 63.9583 425.477 72.4507 419.33 74.6946C413.183 76.9384 405.763 72.0839 402.758 63.8518Z" fill="#273150"/>
<path d="M410.526 96.4376C401.959 92.3503 398.294 82.1624 402.34 73.6823C406.386 65.2023 416.611 61.6414 425.177 65.7287C433.744 69.8161 437.409 80.004 433.363 88.4841C429.317 96.9641 419.092 100.525 410.526 96.4376Z" fill="#273150"/>
<path d="M369.452 73.5951C362.927 68.0205 362.987 57.241 369.585 49.5183C376.183 41.7957 386.821 40.0544 393.346 45.6289C399.871 51.2035 399.811 61.983 393.213 69.7056C386.614 77.4282 375.976 79.1696 369.452 73.5951Z" fill="#273150"/>
<path d="M361.385 79.5443C362.25 91.8086 373.039 93.6559 385.502 94.7682C392.998 95.4356 400.982 92.4856 406.162 87.3691C409.6 83.9741 411.8 79.6265 411.81 74.7518C411.834 62.5311 398.047 51.6209 385.579 50.5038C373.122 49.3964 360.456 66.3757 361.385 79.5443Z" fill="#48598B"/>
<path d="M390.858 51.4269C387.095 45.95 386.648 39.7212 389.86 37.5144C393.072 35.3076 398.726 37.9586 402.489 43.4355C406.252 48.9125 406.699 55.1413 403.487 57.3481C400.276 59.5549 394.621 56.9039 390.858 51.4269Z" fill="#48598B"/>
<path d="M403.638 45.5433C403.236 40.4204 405.04 36.1002 407.668 35.8938C410.296 35.6874 412.753 39.673 413.155 44.7958C413.558 49.9186 411.753 54.2388 409.125 54.4453C406.497 54.6517 404.041 50.6661 403.638 45.5433Z" fill="#48598B"/>
<path d="M399.728 63.8648C396.547 55.151 398.25 46.5242 403.531 44.5963C408.813 42.6685 415.673 48.1696 418.854 56.8834C422.034 65.5973 420.331 74.2241 415.05 76.1519C409.768 78.0798 402.908 72.5786 399.728 63.8648Z" fill="#48598B"/>
<path d="M406.721 93.3058C399.36 89.7935 396.21 81.039 399.687 73.7522C403.164 66.4653 411.95 63.4055 419.311 66.9178C426.673 70.4302 429.822 79.1846 426.346 86.4715C422.869 93.7583 414.083 96.8181 406.721 93.3058Z" fill="#48598B"/>
<path d="M372.444 73.6734C366.838 68.8831 366.889 59.62 372.559 52.9838C378.229 46.3476 387.37 44.8512 392.977 49.6415C398.584 54.4319 398.532 63.6949 392.862 70.3312C387.192 76.9674 378.051 78.4638 372.444 73.6734Z" fill="#48598B"/>
<path d="M419.208 251.427C419.232 257.438 417.641 272.208 409.642 272.595C401.798 272.977 398.679 267.256 396.058 258.246C392.32 245.401 375.098 184.748 395.1 183.084C415.102 181.42 416.872 190.338 419.111 201.983C421.35 213.633 419.16 240.299 419.208 251.427Z" fill="#273150"/>
<path d="M418.25 261.307C417.97 262.56 412.703 253.27 412.703 253.27C412.703 253.27 413.095 233.65 410.024 231.459C399.312 222.657 389.36 227.252 389.36 227.252C384.905 207.172 382.473 184.133 395.1 183.084C415.102 181.42 416.872 190.338 419.111 201.983C420.407 208.744 420.214 220.563 419.836 231.469C419.561 239.356 419.686 254.899 418.25 261.307Z" fill="#102441"/>
<path d="M423.449 270.568C439.108 299.957 435.017 327.832 435.979 362.773C436.362 376.638 428.034 374.35 425.712 363.856C422.68 350.17 413.09 321.555 402.756 282.547C399.501 272.788 413.221 251.369 423.449 270.568Z" fill="#F5AF8D"/>
<path d="M421.394 265.21C416.882 255.867 408.254 253.826 401.779 256.901C397.528 258.918 396.686 260.93 400.197 274.389C402.393 282.794 403.868 287.074 404.124 287.717C404.124 287.717 414.425 282.117 428.585 282.547C428.585 282.542 424.455 271.55 421.394 265.21Z" fill="#102441"/>
<path d="M420.557 272.739C434.064 298.094 430.921 322.797 431.752 352.94C431.835 355.905 432.042 358.294 431.709 360.281C430.945 364.808 426.138 366.771 424.629 359.962C422.012 348.153 411.62 316.723 402.702 283.069C399.897 274.654 411.731 256.176 420.557 272.739Z" fill="#F5AF8D"/>
<path d="M419.59 267.047C419.59 267.047 413.467 251.359 401.329 254.614C397.276 255.697 396.444 260.533 400.013 273.363C402.485 282.261 403.65 286.846 403.882 287.533C403.882 287.533 412.689 281.729 424.929 282.43L419.59 267.047Z" fill="#273150"/>
<path d="M400.076 265.007C400.076 265.007 407.282 266.283 409.835 263.478C409.835 263.478 408.689 268.198 406.136 269.088C403.587 269.983 401.227 267.43 401.227 267.43L403.524 267.173L400.076 265.007Z" fill="#102441"/>
<path d="M433.528 366.984C432.425 377 431.294 389.83 409.981 387.392C399.172 386.154 412.544 373.6 416.432 368.928C416.432 368.928 423.222 361.253 423.798 360.03C425.263 356.906 430.404 356.132 433.184 362.482C434.626 365.761 433.687 365.529 433.528 366.984Z" fill="#F6874E"/>
<path d="M437.958 373.039C438.291 374.799 437.407 375.515 434.93 377.092C429.727 380.409 421.336 383.301 412.893 382.411C402.287 381.299 423.798 377.246 425.713 374.761C427.628 372.275 428.397 367.303 429.92 363.952C431.705 360.03 432.217 357.162 433.939 360.223C435.661 363.28 437.581 371.051 437.958 373.039Z" fill="#CE6D3E"/>
<path d="M435.98 362.961C435.98 362.961 436.313 363.232 434.384 366.917C427.115 380.82 423.43 380.941 414.425 380.883C408.492 380.845 417.743 369.277 417.743 369.277L423.42 360.649C423.42 360.649 418.604 366.404 413.187 372.56C409.855 376.342 405.87 379.544 404.453 381.865C401.992 385.284 399.279 390.778 402.185 391.407C411.945 393.51 424.881 391 427.28 389.782C429.678 388.563 429.959 385.183 432.986 381.652C434.132 380.313 437.131 378.973 437.324 377.764C437.527 374.645 438.49 372.406 437.784 368.677C437.034 364.726 435.98 362.961 435.98 362.961Z" fill="#992C29"/>
<path d="M362.41 348.099C364.165 354.846 362.526 356.093 360.669 358.231C346.91 374.093 343.66 367.961 341.46 369.006C334.124 372.492 333.901 363.705 337.214 361.868C340.401 360.098 345.58 352.931 349.604 349.27C351.485 347.558 351.625 346.489 354.193 346.146C356.863 345.793 361.665 345.251 362.41 348.099Z" fill="#F6874E"/>
<path d="M362.366 356.485C354.643 376.482 338.098 371.317 334.839 369.798C333.494 369.17 342.17 359.386 342.17 359.386C342.17 359.386 351.963 356.765 357.254 354.41C362.796 351.944 364.663 350.546 362.366 356.485Z" fill="#CE6D3E"/>
<path d="M362.936 348.37C362.38 347.34 362.274 347.809 362.095 348.559C360.712 354.362 360.238 356.683 355.595 361.669C354.014 363.367 354.052 367.158 340.826 367.821C335.216 368.101 342.17 359.392 342.17 359.392L350.029 348.801L347.693 351.088C347.693 351.088 338.466 361.37 334.848 363.744C331.304 366.07 327.203 377.183 330.588 377.503C339.23 378.315 347.471 377.401 354.352 375.737C357.559 374.78 359.474 368.048 360.707 367.613C360.707 367.613 364.078 365.185 364.111 363.381C364.14 361.64 363.715 349.811 362.936 348.37Z" fill="#992C29"/>
<path d="M348.803 262.202C348.803 262.202 343.445 222.686 350.907 202.602C355.371 190.58 363.766 188.355 372.858 188.645C381.95 188.935 383.807 196.088 382.457 203.743C381.108 211.399 374.773 253.279 371.571 262.869C368.133 273.17 361.343 272.43 356.966 272.411C351.874 272.381 349.896 269.717 348.803 262.202Z" fill="#273150"/>
<path d="M364.493 231.846C361.05 229.549 347.117 228.407 347.117 228.407C347.258 219.282 348.225 209.837 350.914 202.602C355.377 190.58 363.773 188.355 372.865 188.645C381.956 188.936 383.813 196.088 382.464 203.744C381.879 207.066 380.356 216.84 378.552 227.624C378.552 227.624 374.257 252.897 372.536 258.7C372.207 258.531 371.133 252.515 369.475 242.949C368.212 239.603 367.937 234.143 364.493 231.846Z" fill="#102441"/>
<path d="M371.138 271.052C378.218 294.691 371.312 305.823 362.191 348.704C361.35 352.66 353.312 355.465 351.242 349.507C350.899 348.521 351.049 346.639 351.049 344.487C351.049 328.586 346.803 289.255 349.41 274.026C351.426 262.279 367.651 259.402 371.138 271.052Z" fill="#F5AF8D"/>
<path d="M374.131 286.131C374.276 290.126 374.088 295.939 372.496 304.034C370.117 316.153 365.968 331.368 365.45 334.008C364.59 338.409 362.152 349.218 361.48 351.945C361.059 353.652 355.885 355.437 355.885 355.437C355.885 355.437 359.149 346.195 359.903 343.83C361.461 338.936 369.092 304.247 370.838 286.828C371.036 284.816 373.986 282.093 374.131 286.131Z" fill="#F5AF8D"/>
<path d="M372.889 266.569C370.195 258.376 366.525 256.592 360.054 256.437C354.604 256.307 350.024 255.997 349.497 268.832C349.154 277.203 348.83 283.297 348.428 286.754C348.428 286.754 355.489 283.872 374.233 286.851C374.229 286.851 374.674 272 372.889 266.569Z" fill="#273150"/>
<path d="M372.888 266.569C372.327 264.959 372.206 270.476 372.206 270.476L370.823 286.387C370.823 286.387 371.583 286.431 374.228 286.851C374.228 286.851 374.75 277.257 372.888 266.569Z" fill="#102441"/>
<path d="M351.204 266.844C351.204 266.844 357.757 266.598 360.344 265.161C362.931 263.725 355.542 273.794 351.204 266.844Z" fill="#102441"/>
<path d="M372.526 156.49C380.694 165.06 404.797 156.185 405.817 148.046C406.252 144.584 407.505 136.541 411.176 121.859C413.473 112.675 413.855 109.667 412.834 108.376C410.155 104.986 400.072 103.782 389.747 102.22C372.719 99.6375 371.51 103.714 365.896 111.626C359.057 121.274 356.456 139.632 372.526 156.49Z" fill="#F6BE4A"/>
<path d="M400.27 122.41C408.438 130.98 404.797 156.185 405.817 148.046C406.252 144.584 407.505 136.541 411.176 121.859C413.473 112.675 413.855 109.667 412.834 108.376C410.155 104.986 400.072 103.782 389.747 102.22C372.719 99.6374 371.525 103.661 365.591 111.935C358.704 121.545 384.2 105.552 400.27 122.41Z" fill="#D09435"/>
<path d="M405.052 140.014C406.329 144.797 406.092 157.008 405.691 149.705C405.497 146.223 411.175 121.095 411.175 121.095L384.775 111.824L402.122 127.513C402.117 127.513 403.776 135.231 405.052 140.014Z" fill="#D09435"/>
<path d="M408.496 152.258C408.496 152.258 442.377 199.719 444.781 205.963C447.189 212.226 455.029 220.263 454.69 223.552C452.432 217.299 431.806 219.339 428.087 218.145C428.087 218.145 435.636 213.169 429.262 210.876C422.888 208.584 408.341 208.332 399.791 208.478C374.266 208.922 344.713 213.826 336.028 229.098C336.028 229.098 350.57 157.636 370.731 142.093C390.482 126.859 408.496 152.258 408.496 152.258Z" fill="#003366"/>
<path d="M367.936 115.621C364.59 117.439 361.591 121.231 361.591 121.231C361.591 121.231 362.196 116.955 365.16 112.748C367.395 109.576 375.587 113.894 375.587 113.894C375.587 113.894 370.059 114.47 367.936 115.621Z" fill="#D09435"/>
<path d="M371.979 149.048C377.023 153.221 401.769 152.322 398.036 141.697C396.251 136.609 384.969 130.366 376.863 129.433C363.501 127.895 361.049 140.014 371.979 149.048Z" fill="#FEED7F"/>
<path d="M348.805 206.592L396.251 202.766C408.085 202.766 423.802 181.338 419.972 175.215C416.147 169.093 400.328 149.454 400.328 149.454C398.669 141.291 395.835 135.168 384.001 135.168C384.001 135.168 370.48 135.932 364.87 150.731C364.87 150.731 350.328 172.73 348.036 189.569C346.353 201.915 348.805 206.592 348.805 206.592Z" fill="#FEED7F"/>
<path d="M405.652 201.079C410.058 201.388 413.932 203.347 417.979 190.768C417.975 190.768 413.516 197.2 405.652 201.079Z" fill="#FEED7F"/>
<path d="M419.465 170.626C419.465 170.626 418.188 180.318 413.855 186.697C413.855 186.697 417.68 175.728 417.424 169.093C417.168 162.458 419.465 170.626 419.465 170.626Z" fill="#F6BE4A"/>
<path d="M351.426 207.4C351.256 204.895 350.352 196.959 352.079 192.974C352.079 192.974 348.384 199.367 348.563 205.949C348.737 212.531 351.595 209.905 351.426 207.4Z" fill="#F6BE4A"/>
<path d="M406.663 156.979C406.663 156.979 401.237 148.414 390.738 144.845C390.738 144.845 403.273 146.398 407.732 152.515C412.191 158.633 406.663 156.979 406.663 156.979Z" fill="#F6BE4A"/>
<path d="M385.259 110.804L386.371 110.974C389.191 111.404 391.826 109.47 392.257 106.65L393.901 95.9093C394.331 93.0899 392.397 90.4542 389.578 90.0238L388.465 89.8545C385.646 89.4241 383.01 91.3585 382.58 94.178L380.936 104.919C380.5 107.738 382.44 110.374 385.259 110.804Z" fill="#F6874E"/>
<path d="M386.831 98.1821L388.688 98.4675C391.304 98.8689 393.746 97.0747 394.148 94.4584L395.903 82.9728C396.305 80.3564 394.511 77.9142 391.894 77.5128L390.037 77.2275C387.421 76.8261 384.979 78.6203 384.577 81.2366L382.822 92.7222C382.42 95.3385 384.215 97.7856 386.831 98.1821Z" fill="#CE6D3E"/>
<path d="M425.142 127.005C428.397 135.168 433.649 149.754 435.119 152.23C436.589 154.706 436.637 158.488 432.72 160.422C428.808 162.362 425.853 161.385 424.088 159.281C422.323 157.177 412.259 140.14 410.155 133.316C408.501 127.958 409.618 122.077 412.515 120.689C415.412 119.301 421.887 118.842 425.142 127.005Z" fill="#F5AF8D"/>
<path d="M425.142 127.005C428.397 135.168 433.649 149.754 435.119 152.23C435.569 152.989 435.888 153.971 435.941 154.508C436.057 155.712 435.182 155.818 433.959 154.363C432.991 153.212 425.882 138.776 423.421 130.811C421.394 124.249 423.672 123.315 425.142 127.005Z" fill="#F5AF8D"/>
<path d="M407.476 107.618C411.722 106.147 417.487 108.445 421.505 118.204C423.614 123.33 426.544 130.192 426.544 130.192C426.544 130.192 419.909 131.237 411.369 136.571C411.369 136.571 408.656 131.213 406.712 126.241C402.63 115.781 404.158 108.764 407.476 107.618Z" fill="#EC5E4D"/>
<path d="M407.476 107.618C411.722 106.147 417.487 108.445 421.505 118.204C423.614 123.33 426.544 130.192 426.544 130.192L423.546 130.831L417.104 125.38L405.435 122.16C402.843 113.527 404.521 108.643 407.476 107.618Z" fill="#C93F37"/>
<path d="M459.488 182.228C459.488 182.228 463.608 186.484 462.264 188.892C460.997 191.15 456.461 192.993 453.225 190.367C449.99 187.741 439.593 180.917 425.771 162.332C419.876 154.411 431.328 148.893 435.903 153.898C440.478 158.904 459.488 182.228 459.488 182.228Z" fill="#F5AF8D"/>
<path d="M455.431 177.769L445.227 171.773L432.9 152.177C432.9 152.177 434.588 152.429 435.903 153.904C440.415 158.962 455.431 177.769 455.431 177.769Z" fill="#F5AF8D"/>
<path d="M469.079 196.586C469.079 196.586 473.538 204.271 474.727 206.152C475.767 207.791 477.314 206.384 476.836 205.272C476.357 204.16 473.078 196.238 469.079 196.586Z" fill="#CE6D3E"/>
<path d="M471.883 196.586C471.883 196.586 476.342 204.271 477.532 206.152C478.572 207.791 480.119 206.384 479.64 205.272C479.162 204.16 475.888 196.238 471.883 196.586Z" fill="#CE6D3E"/>
<path d="M452.921 188.36C453.337 191.044 455.011 195.193 459.078 199.638C462.216 203.067 462.927 204.798 464.073 207.284C464.363 207.907 465.128 208.686 465.892 209.387C468.329 211.622 469.32 211.273 469.572 209.789C469.862 208.048 469.001 206.732 467.473 204.416C466.69 203.226 466.544 201.8 466.279 201.021C465.935 200.034 465.8 197.674 468.658 197.181C471.593 196.673 473.194 192.824 472.212 191.407C470.491 188.921 459.247 182.494 457.951 182.866C455.078 183.403 452.505 185.676 452.921 188.36Z" fill="#F5AF8D"/>
<path d="M467.695 193.574C466.723 193.85 465.447 195.755 466.757 196.925C468.068 198.096 474.906 201.587 476.797 203.875C479.046 206.597 480.284 208.977 481.681 209.702C483.466 210.626 485.753 210.505 483.906 207.666C481.29 203.647 479.35 199.295 474.862 197.07C470.37 194.846 468.667 193.298 467.695 193.574Z" fill="#F5AF8D"/>
<path d="M467.932 196.939C465.751 194.691 468.169 189.163 469.77 189.618C471.371 190.072 478.678 196.05 480.376 196.828C482.073 197.607 485.918 203.236 486.764 205.238C487.615 207.24 487.688 208.478 485.347 207.883C483.006 207.289 480.269 200.639 477.058 198.961C473.847 197.283 470.113 199.188 467.932 196.939Z" fill="#F5AF8D"/>
<path d="M411.814 125.472C411.814 125.472 418.948 126.899 421.496 128.451C424.045 130.004 423.421 130.811 423.421 130.811L411.814 125.472Z" fill="#C93F37"/>
<path d="M377.695 109.783C391.758 119.349 423.662 122.666 423.56 122.366C422.54 119.296 415.639 104.043 408.496 102.766C403.703 102.751 384.93 102.93 377.695 109.783Z" fill="#003366"/>
<path d="M372.781 102.007C377.371 100.986 386.816 108.555 387.328 110.596C387.841 112.636 371.955 109.469 343.064 126.497C333.14 132.343 365.387 103.791 372.781 102.007Z" fill="#003366"/>
<path d="M383.431 110.919C382.699 110.919 382.106 110.326 382.106 109.594C382.106 108.863 382.699 108.269 383.431 108.269C384.163 108.269 384.756 108.863 384.756 109.594C384.756 110.326 384.163 110.919 383.431 110.919Z" fill="#273150"/>
<path d="M371.394 40.6861C369.943 41.1745 370.112 48.385 373.72 47.9111C377.115 47.4662 380.848 46.4264 379.707 44.3324C378.57 42.2433 372.844 40.1976 371.394 40.6861Z" fill="#C93F37"/>
<path d="M371.002 43.0314C371.002 43.0314 371.587 47.3935 372.83 47.5725C374.078 47.7466 372.99 45.7009 372.705 42.8525C372.419 40.004 370.804 41.1986 371.002 43.0314Z" fill="#F7BC4B"/>
<path d="M380.312 46.1124C380.312 46.1124 373.957 51.5433 367.917 53.5986C363.351 55.151 359.85 55.2187 359.85 55.2187L360.914 53.7824L358.965 52.1623C358.965 52.1623 367.114 52.0897 378.749 45.0871L380.312 46.1124Z" fill="#C93F37"/>
<path d="M377.193 48.0899C377.193 48.0899 372.444 54.488 367.09 57.5395C363.043 59.8463 359.638 60.5185 359.638 60.5185L360.296 58.9371L357.95 57.6991C357.95 57.6991 365.906 56.2144 375.389 47.3693L377.193 48.0899Z" fill="#C93F37"/>
<path d="M409.11 77.2812C406.166 75.26 405.644 70.9048 407.945 67.5536C410.246 64.2023 414.498 63.1241 417.442 65.1453C420.385 67.1664 420.907 71.5216 418.606 74.8729C416.305 78.2241 412.053 79.3024 409.11 77.2812Z" fill="#CE6D3E"/>
<path d="M388.465 47.2878C386.85 50.1314 392.309 53.5456 398.132 56.8535C403.95 60.1613 409.98 60.5385 411.596 57.6901C413.211 54.8465 409.806 49.8557 403.989 46.5478C398.166 43.2448 390.08 44.4442 388.465 47.2878Z" fill="#273150"/>
<path d="M414.338 67.1632C414.125 49.9034 400.086 44.7723 396.6 44.1049C379.209 40.7681 371.384 51.0737 368.062 69.3153C365.634 82.6434 373.522 86.3865 381.414 89.3994C390.912 93.0264 414.599 88.7224 414.338 67.1632Z" fill="#F5AF8D"/>
<path d="M408.603 72.7297C407.669 59.6579 395.105 55.1604 392.01 54.5027C392.01 54.5027 375.118 58.6085 371.863 61.1667C368.608 63.725 368.009 72.3235 368.009 72.3235C366.451 82.3003 373.546 85.4776 380.621 88.1084C389.123 91.2663 409.768 89.0514 408.603 72.7297Z" fill="#F5AF8D"/>
<path d="M403.302 50.445C394.162 43.6068 379.567 46.3682 379.567 46.3682C379.567 46.3682 393.398 35.371 405.991 46.5374C417.288 56.5529 414.169 65.4271 412.578 70.7274C412.578 70.7274 414.106 58.5308 403.302 50.445Z" fill="#F6BE4A"/>
<path d="M394.428 65.8579C393.424 65.6778 392.882 64.0123 393.219 62.1378C393.555 60.2634 394.641 58.8899 395.645 59.0699C396.65 59.25 397.191 60.9155 396.855 62.79C396.519 64.6644 395.433 66.038 394.428 65.8579Z" fill="#273252"/>
<path d="M377.015 63.4194C376.175 63.2433 375.786 61.7148 376.145 60.0052C376.503 58.2957 377.474 57.0525 378.313 57.2285C379.152 57.4046 379.542 58.9331 379.183 60.6427C378.825 62.3522 377.854 63.5954 377.015 63.4194Z" fill="#273252"/>
<path d="M395.787 52.7092C395.787 52.7092 398.239 53.159 398.79 55.3932" stroke="#273252" stroke-miterlimit="10" stroke-linecap="round" stroke-linejoin="round"/>
<path d="M377.328 52.095C377.328 52.095 378.929 50.7215 380.587 50.9537" stroke="#273252" stroke-miterlimit="10" stroke-linecap="round" stroke-linejoin="round"/>
<path d="M152.268 264.548C149.662 260.934 142.554 254.923 130.715 251.301V266.359L142.471 273.602L152.268 264.548Z" fill="#C83201"/>
<path d="M87.6102 251.301C75.772 254.923 68.6635 260.934 66.0576 264.548L75.8543 273.602L87.6102 266.359V251.301Z" fill="#C83201"/>
<path d="M130.715 251.301C124.743 249.473 117.572 248.252 109.163 248.252C100.757 248.252 93.5823 249.473 87.6102 251.301M130.715 251.301C142.554 254.923 149.662 260.934 152.268 264.548L142.471 273.602L130.715 266.359V251.301ZM87.6102 251.301C75.772 254.923 68.6635 260.934 66.0576 264.548L75.8543 273.602L87.6102 266.359V251.301Z" stroke="#C83201" stroke-width="2" stroke-linecap="round" stroke-linejoin="round"/>
<path fill-rule="evenodd" clip-rule="evenodd" d="M101.326 255.495C102.365 255.495 103.362 255.877 104.097 256.556C104.831 257.235 105.244 258.156 105.244 259.116V266.359H113.082V259.116C113.082 258.156 113.494 257.235 114.229 256.556C114.964 255.877 115.961 255.495 117 255.495C118.04 255.495 119.036 255.877 119.771 256.556C120.506 257.235 120.919 258.156 120.919 259.116V268.481L140.986 287.026C143.191 289.063 144.43 291.826 144.431 294.707V298.952C144.431 301.833 143.192 304.596 140.988 306.634C138.783 308.671 135.793 309.816 132.675 309.816H85.651C82.5331 309.816 79.5429 308.671 77.3383 306.634C75.1336 304.596 73.895 301.833 73.895 298.952V294.707C73.8967 291.828 75.1357 289.066 77.3395 287.03L97.407 268.478V259.116C97.407 258.156 97.8198 257.235 98.5547 256.556C99.2896 255.877 100.286 255.495 101.326 255.495ZM109.163 295.33C111.242 295.33 113.235 294.567 114.705 293.209C116.175 291.851 117 290.008 117 288.087C117 286.167 116.175 284.324 114.705 282.966C113.235 281.608 111.242 280.845 109.163 280.845C107.084 280.845 105.091 281.608 103.621 282.966C102.151 284.324 101.326 286.167 101.326 288.087C101.326 290.008 102.151 291.851 103.621 293.209C105.091 294.567 107.084 295.33 109.163 295.33Z" fill="#C83201"/>
<rect x="28.999" y="309.161" width="183" height="8" rx="4" fill="#F98888"/>
<rect x="28.999" y="311.161" width="14" height="134" rx="7" fill="#F98888"/>
<rect x="49.0605" y="311.252" width="11" height="117" rx="5.5" fill="#F98888"/>
<rect x="184.999" y="311.252" width="11" height="117" rx="5.5" fill="#F98888"/>
<rect x="197.999" y="309.161" width="14" height="134" rx="7" fill="#F98888"/>
</svg>
