<svg width="105" height="106" viewBox="0 0 105 106" fill="none" xmlns="http://www.w3.org/2000/svg">
<path d="M44.2772 24.8781C44.4994 25.3303 44.6461 25.8145 44.7118 26.3123L45.9262 44.369L46.529 53.4447C46.5353 54.3781 46.6817 55.3054 46.9636 56.1968C47.6917 57.9262 49.4432 59.0254 51.3487 58.9488L80.3852 57.0495C81.6426 57.0288 82.8568 57.499 83.7607 58.3568C84.514 59.0716 85.0003 60.0068 85.1535 61.0125L85.2049 61.6233C84.0033 78.2616 71.7833 92.1392 55.1795 95.7215C38.5757 99.3039 21.5493 91.7364 13.3444 77.1275C10.979 72.8834 9.50158 68.2183 8.99883 63.4063C8.7888 61.9817 8.69632 60.5429 8.72229 59.1038C8.69636 41.2656 21.3993 25.8439 39.181 22.1261C41.3212 21.7929 43.4192 22.9258 44.2772 24.8781Z" fill="#003366"/>
<path opacity="0.99" d="M56.1299 9.37369C76.0183 9.87967 92.7339 24.1812 95.9514 43.4443L95.9207 43.5865L95.8329 43.7932L95.8451 44.3606C95.7995 45.1123 95.5093 45.8356 95.0091 46.4198C94.4881 47.0284 93.7763 47.4428 92.9924 47.6037L92.5144 47.6693L59.0138 49.8399C57.8994 49.9498 56.7899 49.5904 55.9612 48.8513C55.2707 48.2353 54.8292 47.4038 54.7045 46.5079L52.4559 13.056C52.4167 12.9428 52.4167 12.8202 52.4559 12.7071C52.4866 11.785 52.8925 10.9134 53.5828 10.2871C54.2732 9.66069 55.1905 9.33173 56.1299 9.37369Z" fill="#C83201"/>
</svg>
