<svg width="57" height="56" viewBox="0 0 57 56" fill="none" xmlns="http://www.w3.org/2000/svg">
<rect x="4.5" y="4" width="48" height="48" rx="24" fill="#C5F5BF"/>
<path d="M34.5 19C33.7044 19 32.9413 19.3161 32.3787 19.8787C31.8161 20.4413 31.5 21.2044 31.5 22V34C31.5 34.7956 31.8161 35.5587 32.3787 36.1213C32.9413 36.6839 33.7044 37 34.5 37C35.2956 37 36.0587 36.6839 36.6213 36.1213C37.1839 35.5587 37.5 34.7956 37.5 34C37.5 33.2044 37.1839 32.4413 36.6213 31.8787C36.0587 31.3161 35.2956 31 34.5 31H22.5C21.7044 31 20.9413 31.3161 20.3787 31.8787C19.8161 32.4413 19.5 33.2044 19.5 34C19.5 34.7956 19.8161 35.5587 20.3787 36.1213C20.9413 36.6839 21.7044 37 22.5 37C23.2956 37 24.0587 36.6839 24.6213 36.1213C25.1839 35.5587 25.5 34.7956 25.5 34V22C25.5 21.2044 25.1839 20.4413 24.6213 19.8787C24.0587 19.3161 23.2956 19 22.5 19C21.7044 19 20.9413 19.3161 20.3787 19.8787C19.8161 20.4413 19.5 21.2044 19.5 22C19.5 22.7956 19.8161 23.5587 20.3787 24.1213C20.9413 24.6839 21.7044 25 22.5 25H34.5C35.2956 25 36.0587 24.6839 36.6213 24.1213C37.1839 23.5587 37.5 22.7956 37.5 22C37.5 21.2044 37.1839 20.4413 36.6213 19.8787C36.0587 19.3161 35.2956 19 34.5 19Z" stroke="#003366" stroke-width="2" stroke-linecap="round" stroke-linejoin="round"/>
<rect x="4.5" y="4" width="48" height="48" rx="24" stroke="#EDFFEB" stroke-width="8"/>
</svg>
