<svg width="591" height="579" viewBox="0 0 591 579" fill="none" xmlns="http://www.w3.org/2000/svg">
<path opacity="0.2" d="M117.883 106.813L106.582 103.286C106.582 103.286 103.622 112.775 93.7088 109.868C88.5604 108.36 86.9519 104.176 86.674 101.269C86.3521 97.8936 87.7926 94.6107 90.3344 92.3676C93.2375 89.805 98.3339 88.2428 105.531 91.9612L113.481 66.4805L102.306 62.995L97.6495 77.9204C97.6495 77.9204 80.7138 77.082 75.3256 94.3536C70.1702 110.878 83.7917 119.34 90.1353 121.319C94.9861 122.832 111.877 126.815 117.883 106.813Z" fill="#002952"/>
<path opacity="0.2" d="M103.81 57.7054L115.151 61.2433L118.455 50.6522L107.114 47.1143L103.81 57.7054Z" fill="#002952"/>
<path d="M149.074 78.0434L153.6 76.8495C153.6 76.8495 152.597 73.0501 156.528 71.9396C158.57 71.3629 159.987 72.426 160.691 73.3408C161.508 74.4038 161.716 75.8062 161.336 77.0916C160.903 78.5599 159.524 80.1533 156.333 80.4208L159.024 90.6251L163.498 89.4451L161.922 83.4675C161.922 83.4675 167.77 80.1892 165.946 73.2736C164.201 66.6557 157.861 66.6846 155.321 67.3551C153.376 67.8669 146.883 70.0833 149.074 78.0434Z" fill="#EBEBEB"/>
<path d="M164.106 91.5241L159.564 92.7222L160.683 96.9635L165.225 95.7654L164.106 91.5241Z" fill="#EBEBEB"/>
<path d="M522.887 195.246L527.287 196.84C527.287 196.84 528.626 193.145 532.489 194.471C534.496 195.159 535.056 196.84 535.114 197.993C535.181 199.331 534.554 200.603 533.509 201.443C532.316 202.403 530.276 202.929 527.5 201.332L523.906 211.254L528.256 212.83L530.362 207.018C530.362 207.018 537.035 207.651 539.472 200.926C541.803 194.491 536.573 190.906 534.103 190.012C532.217 189.327 525.616 187.452 522.887 195.246Z" fill="#EBEBEB"/>
<path d="M527.57 214.885L523.154 213.285L521.66 217.41L526.076 219.009L527.57 214.885Z" fill="#EBEBEB"/>
<path d="M55.8795 245.645L65.1921 242.058C65.1921 242.058 62.1802 234.238 70.2514 230.968C74.4434 229.269 77.6974 231.19 79.4019 232.966C81.3821 235.028 82.1487 237.952 81.645 240.764C81.0683 243.978 78.5195 247.678 71.817 248.99L79.9068 269.988L89.1152 266.439L84.3767 254.139C84.3767 254.139 96.0053 245.825 90.5222 231.592C85.2753 217.974 71.8448 219.515 66.6176 221.53C62.6202 223.071 49.375 229.284 55.8795 245.645Z" fill="#F5F5F5"/>
<path d="M90.8904 270.71L81.5449 274.311L84.9078 283.039L94.2533 279.439L90.8904 270.71Z" fill="#F5F5F5"/>
<path d="M526.508 280.976L519.908 283.519C519.908 283.519 522.043 289.06 516.323 291.378C513.353 292.581 511.047 291.221 509.838 289.962C508.435 288.5 507.892 286.429 508.25 284.436C508.658 282.159 510.465 279.536 515.214 278.606L509.482 263.726L502.956 266.24L506.315 274.956C506.315 274.956 498.073 280.848 501.959 290.935C505.677 300.585 515.195 299.492 518.9 298.066C521.731 296.972 531.118 292.57 526.508 280.976Z" fill="#F5F5F5"/>
<path d="M501.719 263.22L508.341 260.669L505.958 254.484L499.336 257.035L501.719 263.22Z" fill="#F5F5F5"/>
<path d="M545.153 537.048C545.153 537.215 430.684 537.349 289.512 537.349C148.29 537.349 33.8462 537.214 33.8462 537.048C33.8462 536.882 148.29 536.747 289.512 536.747C430.685 536.746 545.153 536.881 545.153 537.048Z" fill="#263238"/>
<path d="M107.121 507.07C108.243 502.818 105.475 498.526 102.362 495.42C99.2484 492.313 95.5209 489.524 93.9151 485.431C91.3132 478.798 94.9069 470.248 90.4347 464.701C87.8041 461.437 83.06 460.325 80.7294 456.842C79.506 455.015 79.1199 452.775 78.6475 450.628C76.236 439.676 70.8169 429.402 63.141 421.227C62.5506 430.965 64.646 440.852 69.1335 449.515C70.9373 452.996 73.1584 456.393 73.7417 460.271C74.6882 466.569 71.1408 473.031 72.653 479.217C74.3816 486.292 82.2926 491.064 82.6293 498.339C82.9142 504.49 77.5257 509.858 77.8917 516.005C78.0477 518.621 79.2492 521.057 80.5883 523.311C85.2999 531.242 92.254 536.723 102.841 536.604L115.805 537.129L107.121 507.07Z" fill="#406B1C"/>
<path d="M122.77 531.556C120.437 531.92 119.2 531.633 119.2 531.633C119.2 531.633 118.942 531.47 118.454 531.112C118.209 530.938 117.908 530.717 117.603 530.389C117.292 530.072 116.896 529.733 116.554 529.254C115.064 527.456 113.408 524.258 112.844 519.816C112.555 517.606 112.514 515.103 112.94 512.414C113.206 511.082 113.493 509.681 114.078 508.315C114.631 506.945 115.308 505.581 116.043 504.183C117.505 501.385 119.25 498.5 120.818 495.31C122.376 492.132 123.754 488.575 124.017 484.653C124.338 480.737 123.717 476.589 124.034 472.216C124.176 470.035 124.691 467.803 125.627 465.716C126.546 463.623 127.796 461.665 129.108 459.734C130.421 457.803 131.805 455.881 132.983 453.81C134.164 451.751 135.124 449.494 135.348 447.081C135.977 442.224 132.956 437.407 133.723 431.921C134.12 429.224 135.44 426.767 136.941 424.531C138.445 422.279 140.164 420.17 141.585 417.861C144.442 413.23 145.847 407.749 146.913 402.178C148.005 396.608 148.786 390.769 150.951 385.198C152.032 382.431 153.383 379.708 155.24 377.295C157.067 374.865 159.444 372.795 162.221 371.404L162.752 371.139L162.82 371.737C162.838 371.9 162.858 372.077 162.878 372.254C163.199 375.253 163.739 378.22 164.091 381.212C164.459 384.202 164.582 387.216 164.436 390.188C164.345 391.689 164.272 393.119 164.018 394.648C163.668 396.144 163.074 397.492 162.514 398.838C161.367 401.517 160.211 404.146 159.412 406.863C158.529 409.561 158.28 412.352 157.971 415.156C157.658 417.945 157.348 420.707 157.041 423.441C156.411 428.868 156.005 434.404 153.704 439.288C152.568 441.705 151.112 443.87 150.063 446.165C148.986 448.444 148.51 450.903 148.374 453.364C148.075 458.262 148.734 463.229 147.319 467.846C145.898 472.418 143.054 476.078 141.663 480.133C140.176 484.185 140.759 488.426 141.361 492.314L141.403 492.585C141.993 496.392 142.579 500.177 141.713 503.68C140.892 507.327 138.355 509.87 136.825 512.555C136.02 513.895 135.46 515.297 135.241 516.725C135.009 518.153 135.008 519.563 134.938 520.919C134.856 522.273 134.775 523.593 134.328 524.793C133.875 525.998 133.032 526.907 132.188 527.645C130.43 529.066 128.596 529.905 126.984 530.495C125.363 531.077 123.933 531.385 122.77 531.556Z" fill="#406B1C"/>
<path d="M159.715 384.568C159.701 384.565 159.658 384.698 159.59 384.96C159.514 385.27 159.42 385.653 159.304 386.127C159.049 387.148 158.745 388.689 158.256 390.616C157.746 392.536 156.57 394.71 155.565 397.388C154.519 400.046 153.458 403.125 152.483 406.586C151.494 410.044 150.618 413.884 149.702 417.997C148.757 422.104 147.813 426.507 145.552 430.661C144.489 432.768 143.292 434.899 142.342 437.232C141.368 439.564 140.842 442.114 140.475 444.672C139.852 449.809 138.909 455.024 137.679 460.359C135.08 470.985 132.603 481.106 130.348 490.321C128.039 499.505 125.958 507.782 124.204 514.757C122.497 521.671 121.11 527.288 120.131 531.25C119.681 533.151 119.324 534.652 119.065 535.744C118.96 536.22 118.876 536.605 118.808 536.918C118.754 537.184 118.733 537.321 118.747 537.326C118.761 537.329 118.81 537.198 118.89 536.94C118.979 536.633 119.09 536.255 119.227 535.787C119.522 534.704 119.93 533.216 120.445 531.331C121.485 527.384 122.959 521.79 124.774 514.905C126.578 507.94 128.717 499.68 131.092 490.512C133.368 481.295 135.867 471.171 138.492 460.542C139.723 455.213 140.675 449.901 141.283 444.79C141.643 442.248 142.145 439.791 143.08 437.529C143.996 435.256 145.175 433.136 146.238 431.006C148.52 426.775 149.469 422.237 150.378 418.148C151.265 414.024 152.106 410.195 153.053 406.744C153.988 403.291 155.003 400.216 156.003 397.556C156.957 394.886 158.095 392.687 158.572 390.702C159.021 388.729 159.268 387.203 159.472 386.163C159.555 385.682 159.622 385.293 159.677 384.978C159.715 384.709 159.729 384.57 159.715 384.568Z" fill="#263238"/>
<path d="M62.8345 421.292C62.822 421.299 62.8517 421.404 62.9223 421.6C63.0096 421.829 63.1178 422.113 63.2517 422.462C63.5365 423.22 64.0283 424.312 64.5593 425.746C65.0709 427.189 65.1836 429.2 65.6683 431.398C66.1117 433.609 66.7426 436.076 67.6208 438.713C68.4865 441.357 69.6203 444.153 70.8527 447.134C72.0593 450.129 75.6123 453.007 75.8175 456.857C75.9868 458.757 76.0645 460.756 76.4278 462.717C76.7732 464.693 80.2177 466.461 81.1417 468.188C83.0858 471.583 84.8187 475.225 86.3846 479.118C89.3867 486.965 92.2455 494.44 94.8491 501.245C97.3956 508.067 99.6903 514.214 101.624 519.396C103.565 524.511 105.142 528.668 106.254 531.6C106.803 532.995 107.235 534.096 107.55 534.898C107.694 535.242 107.81 535.52 107.905 535.746C107.989 535.935 108.038 536.028 108.051 536.022C108.063 536.015 108.039 535.908 107.979 535.707C107.904 535.472 107.811 535.18 107.696 534.821C107.414 534.002 107.027 532.876 106.537 531.45C105.479 528.488 103.981 524.291 102.137 519.124C100.247 513.918 98.0051 507.743 95.5176 500.89C92.93 494.069 90.0871 486.579 87.1032 478.713C85.5409 474.824 83.7698 471.119 81.826 467.749C80.9044 466.036 77.4847 464.337 77.143 462.427C76.7806 460.522 76.6948 458.541 76.5146 456.627C76.2881 452.719 72.676 449.759 71.4497 446.797C70.1899 443.828 69.0332 441.06 68.1383 438.447C67.2324 435.84 66.5685 433.404 66.0881 431.221C65.5676 429.059 65.4131 427.058 64.8457 425.598C64.2622 424.161 63.7324 423.114 63.3992 422.378C63.2369 422.044 63.1051 421.775 62.9985 421.556C62.9012 421.375 62.8464 421.285 62.8345 421.292Z" fill="#263238"/>
<path d="M121.033 537.365C129.502 532.33 131.933 517.05 128.4 507.852C124.867 498.654 118.683 490.251 117.729 480.445C116.996 472.906 119.465 465.17 117.709 457.802C115.34 447.859 105.632 440.157 105.744 429.936C105.806 424.202 109.069 418.806 108.809 413.076C108.49 406.048 103.096 400.473 99.7556 394.283C94.6419 384.807 94.3061 373.603 92.5575 362.978C90.8089 352.354 86.7606 340.975 77.3437 335.754C75.953 344.773 73.579 350.951 74.3248 363.172C74.5923 367.561 79.691 375.962 80.3846 385.58C80.7992 391.329 81.0864 397.086 81.4372 402.839C81.7788 408.438 82.1413 414.138 84.1481 419.375C85.6859 423.389 88.1571 427.035 89.2989 431.179C91.447 438.974 88.6249 447.417 90.3596 455.316C91.8291 462.007 96.46 467.766 97.4061 474.552C98.7354 484.085 92.5656 493.991 95.7235 503.084C97.2914 507.596 101.003 511.219 102.055 515.878C102.873 519.494 101.981 523.321 102.722 526.952C103.915 532.804 115.075 537.348 121.035 536.985" fill="#406B1C"/>
<path d="M79.6783 344.707C79.6644 344.71 79.6771 344.882 79.7154 345.217C79.764 345.596 79.8277 346.084 79.9064 346.699C80.101 348.002 80.3187 349.915 80.7599 352.388C81.2335 354.876 82.5143 357.676 83.5391 361.053C84.6195 364.419 85.6953 368.303 86.6448 372.65C87.6118 376.996 88.42 381.805 89.2689 386.981C90.1466 392.119 91.0429 397.797 93.6102 403.186C94.7983 405.894 96.1312 408.603 97.1317 411.49C98.1565 414.367 98.629 417.461 98.9185 420.642C99.3562 427.032 100.207 433.676 101.402 440.372C103.996 453.738 106.467 466.468 108.716 478.055C111.087 489.596 113.222 499.994 115.02 508.747C116.836 517.437 118.309 524.487 119.341 529.425C119.86 531.819 120.267 533.7 120.557 535.039C120.697 535.642 120.808 536.122 120.894 536.494C120.974 536.821 121.022 536.987 121.036 536.984C121.05 536.981 121.03 536.809 120.977 536.477C120.911 536.1 120.827 535.615 120.721 535.005C120.468 533.659 120.112 531.768 119.658 529.361C118.689 524.41 117.304 517.342 115.597 508.63C113.849 499.867 111.773 489.457 109.469 477.902C107.241 466.318 104.794 453.592 102.223 440.231C101.028 433.528 100.183 426.981 99.7314 420.566C99.4361 417.366 98.944 414.179 97.8844 411.23C96.8538 408.282 95.5024 405.56 94.3131 402.876C91.7597 397.567 90.8634 392.022 89.9498 386.865C89.072 381.698 88.2267 376.875 87.2204 372.52C86.2291 368.163 85.1093 364.272 83.9826 360.907C82.9068 357.518 81.5855 354.743 81.0772 352.319C80.5943 349.891 80.3198 347.958 80.0732 346.672C79.9609 346.063 79.8705 345.579 79.8011 345.203C79.7339 344.873 79.6934 344.705 79.6783 344.707Z" fill="#263238"/>
<path d="M525.407 276.406H520.797C520.797 276.406 520.797 280.276 516.774 280.346C514.685 280.382 513.603 279.013 513.162 277.965C512.652 276.748 512.806 275.36 513.491 274.231C514.273 272.943 515.987 271.771 519.094 272.318V261.924H514.536V268.013C514.536 268.013 508.143 269.665 508.143 276.711C508.143 283.451 514.187 285.017 516.775 285.017C518.753 285.017 525.494 284.539 525.407 276.406Z" fill="#002952"/>
<path d="M514.48 259.784H519.106V255.463H514.48V259.784Z" fill="#002952"/>
<path d="M550.654 270.238C550.667 270.238 550.671 270.041 550.664 269.654C550.652 269.23 550.636 268.663 550.615 267.94C550.598 267.564 550.598 267.14 550.559 266.677C550.495 266.212 550.424 265.709 550.347 265.164C550.269 264.615 550.184 264.027 550.094 263.4C549.941 262.78 549.778 262.123 549.605 261.429C548.893 258.659 547.676 255.303 545.439 251.872C543.239 248.443 540.091 244.88 535.813 241.988C531.531 239.15 526.142 236.961 520.091 236.381C518.577 236.324 517.036 236.141 515.471 236.287C514.689 236.342 513.895 236.325 513.107 236.44C512.32 236.558 511.527 236.679 510.728 236.799C507.571 237.444 504.337 238.383 501.324 240.01C498.305 241.599 495.43 243.649 492.872 246.152C490.365 248.705 488.191 251.684 486.515 255.002C484.826 258.309 483.658 261.974 483.204 265.788C483.017 266.733 483.018 267.7 482.96 268.665C482.896 269.631 482.862 270.6 482.907 271.574C482.985 273.519 483.23 275.471 483.642 277.399C484.534 281.588 486.239 285.532 488.522 288.996L488.486 288.644C486.873 292.663 485.29 296.608 483.745 300.457L483.465 301.156L484.191 300.957C488.525 299.765 492.742 298.606 496.819 297.485L496.507 297.425C500.912 300.74 505.943 302.853 510.938 303.728C513.434 304.167 515.925 304.353 518.331 304.188C519.538 304.137 520.726 304.079 521.882 303.852C522.462 303.762 523.037 303.672 523.609 303.583C524.178 303.478 524.728 303.304 525.281 303.17C534.17 300.887 540.736 295.412 544.494 289.991C546.406 287.276 547.777 284.599 548.631 282.148C548.85 281.536 549.061 280.948 549.264 280.38C549.412 279.798 549.553 279.239 549.69 278.704C549.822 278.169 549.949 277.657 550.07 277.169C550.165 276.677 550.214 276.202 550.283 275.758C550.396 274.865 550.55 274.08 550.584 273.392C550.607 272.716 550.625 272.138 550.642 271.656C550.651 271.216 550.659 270.867 550.665 270.597C550.668 270.359 550.665 270.238 550.654 270.238C550.644 270.238 550.628 270.358 550.606 270.595C550.585 270.865 550.557 271.214 550.522 271.651C550.49 272.13 550.452 272.704 550.405 273.376C550.352 274.058 550.181 274.835 550.05 275.72C549.413 279.196 548.026 284.408 544.134 289.732C540.375 295.049 533.871 300.385 525.133 302.58C524.589 302.709 524.048 302.878 523.49 302.978C522.928 303.062 522.362 303.147 521.792 303.232C520.658 303.45 519.49 303.5 518.306 303.545C515.943 303.698 513.501 303.506 511.058 303.067C506.166 302.191 501.248 300.107 496.942 296.85L496.8 296.743L496.629 296.789C492.549 297.902 488.331 299.053 483.994 300.236L484.439 300.735C485.988 296.887 487.576 292.945 489.193 288.928L489.268 288.742L489.158 288.574C486.928 285.186 485.263 281.33 484.391 277.236C483.988 275.352 483.749 273.444 483.671 271.543C483.626 270.591 483.661 269.642 483.722 268.699C483.779 267.755 483.775 266.809 483.959 265.886C484.401 262.156 485.537 258.573 487.186 255.338C488.821 252.092 490.942 249.172 493.389 246.67C495.888 244.216 498.696 242.202 501.648 240.638C504.593 239.035 507.757 238.107 510.849 237.461C511.632 237.341 512.41 237.221 513.181 237.101C513.954 236.986 514.733 236.999 515.499 236.943C517.034 236.791 518.546 236.967 520.033 237.015C525.974 237.556 531.279 239.676 535.512 242.439C539.74 245.256 542.871 248.74 545.079 252.104C547.322 255.47 548.566 258.772 549.317 261.506C549.5 262.193 549.672 262.841 549.836 263.453C549.938 264.073 550.033 264.656 550.122 265.199C550.211 265.738 550.293 266.238 550.368 266.698C550.419 267.157 550.431 267.578 550.461 267.952C550.513 268.672 550.555 269.236 550.585 269.657C550.617 270.041 550.64 270.238 550.654 270.238Z" fill="#263238"/>
<path d="M167.988 233.203H234.866C234.866 233.203 234.866 177.05 293.221 176.045C323.527 175.523 339.241 195.374 345.625 210.584C353.039 228.244 350.796 248.373 340.862 264.749C329.518 283.452 305.089 302.244 260.018 294.303L259.591 443.302H325.72V354.972C325.72 354.972 418.467 330.997 418.467 228.786C418.467 130.992 339.383 109.867 296.883 108.509C273.232 107.754 264.659 106.738 235.408 110.89C198.132 116.182 167.199 159.464 167.988 233.203Z" fill="#C83201"/>
<path d="M326.519 474.367H259.406V537.048H326.519V474.367Z" fill="#C83201"/>
<path opacity="0.1" d="M326.519 474.367H259.406V537.048H326.519V474.367Z" fill="black"/>
<path opacity="0.1" d="M167.988 233.203H234.866C234.866 233.203 234.866 177.05 293.221 176.045C323.527 175.523 339.241 195.374 345.625 210.584C353.039 228.244 350.796 248.373 340.862 264.749C329.518 283.452 305.089 302.244 260.018 294.303L259.591 443.302H325.72V354.972C325.72 354.972 418.467 330.997 418.467 228.786C418.467 130.992 339.383 109.867 296.883 108.509C273.232 107.754 264.659 106.738 235.408 110.89C198.132 116.182 167.199 159.464 167.988 233.203Z" fill="#FFEDED"/>
<path d="M140.285 233.203H207.163C207.163 233.203 207.163 177.05 265.518 176.045C295.824 175.523 311.538 195.374 317.922 210.584C325.336 228.244 323.093 248.373 313.159 264.749C301.816 283.452 276.959 300.451 231.889 292.51V443.301H298.017V354.971C298.017 354.971 390.764 330.996 390.764 228.785C390.764 130.991 303.065 108.278 265.525 108.278C236.817 108.28 139.024 115.22 140.285 233.203Z" fill="#C83201"/>
<path opacity="0.3" d="M140.285 233.203H207.163C207.163 233.203 207.163 177.05 265.518 176.045C295.824 175.523 311.538 195.374 317.922 210.584C325.336 228.244 323.093 248.373 313.159 264.749C301.816 283.452 276.959 300.451 231.889 292.51V443.301H298.017V354.971C298.017 354.971 390.764 330.996 390.764 228.785C390.764 130.991 303.065 108.278 265.525 108.278C236.817 108.28 139.024 115.22 140.285 233.203Z" fill="#2D3A0D"/>
<path d="M298.817 474.367H231.704V537.048H298.817V474.367Z" fill="#C83201"/>
<path opacity="0.3" d="M298.817 474.367H231.704V537.048H298.817V474.367Z" fill="#2D3A0D"/>
<path d="M273.072 176.357C273.068 176.377 272.723 176.355 272.071 176.295C271.417 176.262 270.465 176.077 269.221 176.064C266.744 175.899 263.138 175.963 258.734 176.499C254.335 177.05 249.138 178.14 243.596 180.06C240.841 181.053 237.976 182.194 235.161 183.688C232.322 185.127 229.511 186.889 226.913 189.03C224.299 191.149 222.088 193.622 220.161 196.163C218.228 198.695 216.553 201.282 215.102 203.829C212.258 208.957 210.315 213.904 209.113 218.171C207.883 222.436 207.346 226.002 207.102 228.47C206.959 229.704 206.922 230.668 206.887 231.322C206.849 231.975 206.819 232.319 206.798 232.319C206.777 232.319 206.767 231.975 206.766 231.319C206.761 230.662 206.76 229.693 206.868 228.449C207.04 225.963 207.516 222.363 208.702 218.055C209.86 213.743 211.775 208.743 214.617 203.557C216.067 200.981 217.746 198.365 219.692 195.803C221.626 193.239 223.866 190.724 226.529 188.563C229.171 186.387 232.018 184.61 234.889 183.162C237.738 181.66 240.631 180.521 243.413 179.534C249.007 177.628 254.249 176.575 258.682 176.075C263.12 175.591 266.75 175.592 269.235 175.83C270.482 175.879 271.435 176.102 272.086 176.175C272.736 176.274 273.075 176.336 273.072 176.357Z" fill="#263238"/>
<path d="M373.836 164.416C373.827 164.422 373.754 164.333 373.619 164.154C373.467 163.945 373.274 163.68 373.033 163.349C372.505 162.6 371.768 161.554 370.832 160.226C370.351 159.552 369.847 158.778 369.239 157.975C368.595 157.194 367.898 156.349 367.151 155.442C366.402 154.531 365.603 153.559 364.758 152.528C363.886 151.519 362.871 150.533 361.858 149.454C360.82 148.397 359.789 147.234 358.613 146.125C357.414 145.04 356.165 143.912 354.874 142.744C354.222 142.168 353.585 141.551 352.892 140.977C352.184 140.42 351.466 139.855 350.737 139.281C349.267 138.15 347.807 136.914 346.215 135.774C339.869 131.177 332.445 126.758 324.302 122.833C322.242 121.9 320.206 120.98 318.199 120.073C316.146 119.276 314.124 118.491 312.136 117.72C310.165 116.903 308.149 116.321 306.202 115.679C304.244 115.071 302.358 114.367 300.448 113.921C298.554 113.423 296.705 112.938 294.909 112.465C293.114 111.989 291.331 111.708 289.629 111.336C287.916 111.016 286.282 110.59 284.676 110.39C283.076 110.158 281.539 109.936 280.071 109.724C277.144 109.223 274.459 109.123 272.115 108.887C270.941 108.794 269.85 108.669 268.843 108.622C267.838 108.595 266.917 108.57 266.083 108.548C264.459 108.495 263.18 108.454 262.263 108.425C261.854 108.405 261.527 108.39 261.269 108.377C261.046 108.363 260.93 108.351 260.93 108.34C260.93 108.33 261.045 108.322 261.268 108.316C261.527 108.313 261.854 108.309 262.263 108.303C263.181 108.306 264.461 108.309 266.089 108.313C266.924 108.319 267.848 108.326 268.856 108.335C269.866 108.365 270.961 108.473 272.138 108.55C274.49 108.755 277.186 108.826 280.124 109.3C281.598 109.501 283.142 109.711 284.749 109.93C286.362 110.119 288.004 110.535 289.725 110.845C291.435 111.208 293.228 111.48 295.031 111.949C296.835 112.414 298.693 112.894 300.596 113.385C302.515 113.826 304.411 114.525 306.378 115.13C308.335 115.77 310.359 116.349 312.341 117.165C314.337 117.937 316.369 118.722 318.432 119.52C320.447 120.43 322.492 121.353 324.56 122.288C332.737 126.23 340.186 130.684 346.542 135.326C348.137 136.477 349.598 137.725 351.069 138.869C351.797 139.449 352.516 140.021 353.223 140.584C353.916 141.163 354.553 141.787 355.204 142.37C356.493 143.552 357.738 144.693 358.936 145.791C360.108 146.914 361.135 148.092 362.167 149.162C363.175 150.256 364.183 151.255 365.046 152.278C365.883 153.323 366.673 154.308 367.413 155.232C368.148 156.153 368.835 157.011 369.468 157.804C370.065 158.621 370.556 159.407 371.024 160.094C371.922 161.452 372.629 162.521 373.135 163.286C373.355 163.631 373.532 163.907 373.671 164.123C373.789 164.311 373.844 164.412 373.836 164.416Z" fill="#263238"/>
<path d="M366.869 308.003C366.885 308.015 366.71 308.254 366.363 308.697C365.974 309.181 365.461 309.82 364.82 310.616C364.152 311.451 363.317 312.459 362.296 313.583C361.281 314.713 360.159 316.032 358.814 317.392C357.496 318.778 356.043 320.287 354.403 321.828C352.808 323.416 350.998 324.999 349.115 326.688C345.285 329.991 340.92 333.451 336.123 336.781C331.302 340.082 326.516 342.931 322.066 345.338C319.817 346.498 317.694 347.626 315.642 348.552C313.619 349.537 311.691 350.358 309.928 351.098C308.179 351.872 306.546 352.45 305.13 352.997C303.716 353.551 302.478 353.974 301.46 354.302C300.489 354.617 299.711 354.869 299.119 355.061C298.582 355.228 298.297 355.307 298.29 355.287C298.283 355.268 298.555 355.151 299.079 354.947C299.661 354.728 300.425 354.441 301.38 354.082C302.384 353.72 303.608 353.268 305.007 352.684C306.41 352.109 308.026 351.504 309.76 350.707C311.508 349.945 313.419 349.104 315.427 348.103C317.463 347.16 319.569 346.02 321.802 344.851C326.221 342.427 330.979 339.575 335.78 336.288C340.558 332.97 344.914 329.539 348.752 326.271C350.638 324.6 352.454 323.037 354.058 321.47C355.707 319.95 357.173 318.463 358.507 317.1C359.869 315.764 361.008 314.467 362.045 313.362C363.088 312.262 363.947 311.279 364.641 310.468C365.316 309.703 365.858 309.09 366.268 308.624C366.646 308.202 366.853 307.989 366.869 308.003Z" fill="#263238"/>
<path d="M296.848 438.052C296.681 438.052 296.547 419.451 296.547 396.511C296.547 373.563 296.682 354.967 296.848 354.967C297.015 354.967 297.149 373.563 297.149 396.511C297.149 419.451 297.015 438.052 296.848 438.052Z" fill="#263238"/>
<path d="M299.399 532.797C299.232 532.797 299.098 519.744 299.098 503.645C299.098 487.542 299.233 474.492 299.399 474.492C299.565 474.492 299.7 487.542 299.7 503.645C299.7 519.744 299.564 532.797 299.399 532.797Z" fill="#263238"/>
<path d="M342.61 431.522C342.61 431.522 349.571 423.574 357.499 429.173C365.428 434.772 373.286 475.965 373.286 475.965" stroke="#0C592F" stroke-width="1.158" stroke-miterlimit="10"/>
<path d="M370.392 479.369C370.392 479.369 367.581 451.053 358.316 442.236C349.051 433.419 343.224 449.021 343.224 449.021" stroke="#0C592F" stroke-width="1.158" stroke-miterlimit="10"/>
<path d="M364.416 434.087C364.416 434.087 369.646 433.036 370.661 437.527C371.676 442.017 361.952 456.417 361.952 456.417C361.952 456.417 353.122 454.715 353.13 443.109C353.137 431.504 362.667 431.504 364.416 434.087Z" fill="#0C592F"/>
<path opacity="0.2" d="M364.416 434.087C364.416 434.087 369.646 433.036 370.661 437.527C371.676 442.017 361.952 456.417 361.952 456.417C361.952 456.417 353.122 454.715 353.13 443.109C353.137 431.504 362.667 431.504 364.416 434.087Z" fill="white"/>
<path d="M350.9 442.843C350.9 442.843 353.014 440.505 350.249 439.962C347.484 439.42 334.698 441.715 336.569 454.444C336.569 454.444 351.903 454.569 352.988 449.438C354.073 444.306 350.9 442.843 350.9 442.843Z" fill="#0C592F"/>
<path opacity="0.2" d="M350.9 442.843C350.9 442.843 353.014 440.505 350.249 439.962C347.484 439.42 334.698 441.715 336.569 454.444C336.569 454.444 351.903 454.569 352.988 449.438C354.073 444.306 350.9 442.843 350.9 442.843Z" fill="white"/>
<path d="M370.586 421.018C370.586 421.018 369.997 418.674 372.064 419.303C374.131 419.932 381.957 426.091 376.105 434.032C376.105 434.032 365.683 428.593 366.797 424.728C367.912 420.864 370.586 421.018 370.586 421.018Z" fill="#0C592F"/>
<path opacity="0.2" d="M370.586 421.018C370.586 421.018 369.997 418.674 372.064 419.303C374.131 419.932 381.957 426.091 376.105 434.032C376.105 434.032 365.683 428.593 366.797 424.728C367.912 420.864 370.586 421.018 370.586 421.018Z" fill="white"/>
<path d="M346.386 428.309C346.386 428.309 347.535 426.183 345.377 426.282C343.22 426.382 334.115 430.419 337.826 439.558C337.826 439.558 349.268 436.861 349.142 432.84C349.017 428.821 346.386 428.309 346.386 428.309Z" fill="#0C592F"/>
<path opacity="0.2" d="M346.386 428.309C346.386 428.309 347.535 426.183 345.377 426.282C343.22 426.382 334.115 430.419 337.826 439.558C337.826 439.558 349.268 436.861 349.142 432.84C349.017 428.821 346.386 428.309 346.386 428.309Z" fill="white"/>
<path d="M390.542 507.228C390.542 507.228 396.176 506.93 396.738 491.516C397.299 476.102 387.371 471.987 379.728 473.877C379.728 473.877 380.843 462.902 375.891 463.305C370.941 463.708 371.279 471.037 371.279 471.037C371.279 471.037 369.59 455.474 362.83 455.467C356.071 455.46 362.83 473.877 362.83 473.877C362.83 473.877 353.479 469.388 350.045 473.877C346.61 478.367 354.34 483.631 354.34 483.631C354.34 483.631 342.217 487.582 347.285 500.153C347.285 500.153 338.837 501.472 336.472 507.099C336.472 507.099 337.148 495.745 334.106 496.506C331.064 497.268 331.74 507.228 331.74 507.228C331.74 507.228 326.672 496.286 322.278 500.153C317.885 504.021 324.306 513.286 324.306 513.286C324.306 513.286 315.857 509.184 314.506 514.619C313.154 520.055 319.237 522.08 319.237 522.08C319.237 522.08 310.452 520.049 310.452 530.131C310.452 530.131 293.555 528.518 289.5 537.572H390.204L390.542 507.228Z" fill="#2B7F51"/>
<path d="M340.258 534.999C340.258 534.999 363.607 519.865 359.178 517.311C354.75 514.756 339.174 529.87 339.174 529.87C339.174 529.87 356.381 504.692 352.13 499.645C347.879 494.6 336.426 520.164 336.426 520.164C336.426 520.164 344.213 490.935 338.716 487.728C333.219 484.522 331.227 517.022 331.227 517.022C331.227 517.022 329.078 481.818 319.01 482.253C308.941 482.69 323.6 517.022 323.6 517.022C323.6 517.022 309.398 496.65 304.36 502.433C299.32 508.215 320.393 524.458 320.393 524.458C320.393 524.458 304.635 517.049 303.582 522.546C302.528 528.043 320.967 533.884 320.967 533.884C320.967 533.884 315.041 535.584 313.67 537.57L345.205 537.572C345.202 537.571 345.703 536.059 340.258 534.999Z" fill="#0C592F"/>
<path opacity="0.6" d="M340.258 534.999C340.258 534.999 363.607 519.865 359.178 517.311C354.75 514.756 339.174 529.87 339.174 529.87C339.174 529.87 356.381 504.692 352.13 499.645C347.879 494.6 336.426 520.164 336.426 520.164C336.426 520.164 344.213 490.935 338.716 487.728C333.219 484.522 331.227 517.022 331.227 517.022C331.227 517.022 329.078 481.818 319.01 482.253C308.941 482.69 323.6 517.022 323.6 517.022C323.6 517.022 309.398 496.65 304.36 502.433C299.32 508.215 320.393 524.458 320.393 524.458C320.393 524.458 304.635 517.049 303.582 522.546C302.528 528.043 320.967 533.884 320.967 533.884C320.967 533.884 315.041 535.584 313.67 537.57L345.205 537.572C345.202 537.571 345.703 536.059 340.258 534.999Z" fill="white"/>
<path d="M385.614 537.068C385.614 537.068 403.013 473.067 406.176 470.695C409.339 468.322 427.384 461.652 427.384 461.652C427.384 461.652 471.276 468.98 477.873 468.256C484.47 467.532 505.672 463.445 508.713 468.256C511.754 473.067 523.758 501.934 523.758 501.934L540.621 509.051L551.298 537.068H385.614Z" fill="#040B1D"/>
<path opacity="0.6" d="M551.3 537.068H385.617C385.617 537.068 402.927 473.369 406.15 470.707C406.165 470.7 406.173 470.692 406.173 470.692C406.825 470.205 408.1 469.538 409.719 468.781C415.986 465.865 427.381 461.652 427.381 461.652C427.381 461.652 471.274 468.983 477.871 468.256C484.468 467.529 505.668 463.443 508.712 468.256C509.357 469.283 510.414 471.397 511.673 474.096C516.321 484.059 523.758 501.931 523.758 501.931L540.617 509.053L551.3 537.068Z" fill="white"/>
<path opacity="0.1" d="M511.673 474.096L505.129 480.573L488.074 476.562L468.778 480.573L470.015 488.032L462.99 496.398L465.487 488.032L460.014 478.834C460.014 478.834 437.809 480.183 432.014 478.834C428.378 477.987 417.381 472.634 409.719 468.781C415.986 465.865 427.381 461.651 427.381 461.651C427.381 461.651 471.274 468.983 477.871 468.256C484.468 467.529 505.669 463.443 508.712 468.256C509.357 469.283 510.414 471.397 511.673 474.096Z" fill="black"/>
<path opacity="0.1" d="M551.3 537.068H385.617C385.617 537.068 402.927 473.369 406.15 470.707C406.165 470.7 406.173 470.692 406.173 470.692L395.498 520.35L400.835 528.574L413.954 518.618L424.015 524.233L437.974 521.415L439.361 514.66L459.137 501.654L446.722 513.153L451.093 526.272L470.097 529.548H491.095L499.776 523.761L496.882 511.991L492.512 505.169L514.664 505.117L505.233 510.957L508.712 521.325L519.38 526.272L531.779 518.618L536.832 533.222L551.3 537.068Z" fill="black"/>
<path d="M522.258 536.562H564.68C564.68 536.562 556.232 523.637 552.632 525.276C547.946 527.412 544.473 515.702 539.285 518.476C537.458 519.453 538.352 522.585 537.2 523.846C535.298 525.928 532.88 525.525 530.582 526.67C526.082 528.911 524.479 531.883 522.258 536.562Z" fill="#906035"/>
<path opacity="0.2" d="M522.258 536.562H564.68C564.68 536.562 556.232 523.637 552.632 525.276C547.946 527.412 544.473 515.702 539.285 518.476C537.458 519.453 538.352 522.585 537.2 523.846C535.298 525.928 532.88 525.525 530.582 526.67C526.082 528.911 524.479 531.883 522.258 536.562Z" fill="black"/>
<path d="M560.045 532.957C560.045 532.957 557.26 516.8 559.182 514.432C561.104 512.064 561.441 523.248 561.441 523.248C561.441 523.248 567.903 499.901 572.038 499.778C576.173 499.656 567.128 520.032 567.128 520.032C567.128 520.032 584.801 491.149 589.94 493.839C595.078 496.529 571.44 522.131 571.44 522.131C571.44 522.131 584.368 511.009 587.216 514.149C590.065 517.29 572.865 526.895 572.865 526.895C572.865 526.895 580.449 525.191 580.44 527.715C580.432 530.237 567.636 534.391 560.045 532.957Z" fill="#408C62"/>
<path opacity="0.2" d="M560.045 532.957C560.045 532.957 557.26 516.8 559.182 514.432C561.104 512.064 561.441 523.248 561.441 523.248C561.441 523.248 567.903 499.901 572.038 499.778C576.173 499.656 567.128 520.032 567.128 520.032C567.128 520.032 584.801 491.149 589.94 493.839C595.078 496.529 571.44 522.131 571.44 522.131C571.44 522.131 584.368 511.009 587.216 514.149C590.065 517.29 572.865 526.895 572.865 526.895C572.865 526.895 580.449 525.191 580.44 527.715C580.432 530.237 567.636 534.391 560.045 532.957Z" fill="#408C62"/>
<path d="M557.498 530.65C557.498 530.65 544.216 528.24 542.927 526.085C541.638 523.93 550.382 526.827 550.382 526.827C550.382 526.827 534.152 515.237 535.225 512.005C536.299 508.772 549.502 521.521 549.502 521.521C549.502 521.521 532.157 499.697 535.687 496.484C539.218 493.271 552.343 518.78 552.343 518.78C552.343 518.78 547.392 505.641 550.624 504.326C553.858 503.01 556.428 519.023 556.428 519.023C556.428 519.023 557.252 512.677 559.202 513.397C561.152 514.115 560.751 525.183 557.498 530.65Z" fill="#408C62"/>
<path opacity="0.2" d="M557.498 530.65C557.498 530.65 544.216 528.24 542.927 526.085C541.638 523.93 550.382 526.827 550.382 526.827C550.382 526.827 534.152 515.237 535.225 512.005C536.299 508.772 549.502 521.521 549.502 521.521C549.502 521.521 532.157 499.697 535.687 496.484C539.218 493.271 552.343 518.78 552.343 518.78C552.343 518.78 547.392 505.641 550.624 504.326C553.858 503.01 556.428 519.023 556.428 519.023C556.428 519.023 557.252 512.677 559.202 513.397C561.152 514.115 560.751 525.183 557.498 530.65Z" fill="#408C62"/>
<path d="M556.501 528.884C556.501 528.884 543.674 516.033 543.903 512.663C544.133 509.294 551.572 519.203 551.572 519.203C551.572 519.203 542.529 493.947 546.194 491.199C549.859 488.45 554.669 512.663 554.669 512.663C554.669 512.663 552.244 475.245 558.611 474.403C564.978 473.561 559.912 511.814 559.912 511.814C559.912 511.814 564.519 493.5 569.1 494.525C573.681 495.551 564.239 515.216 564.239 515.216C564.239 515.216 570.016 508.835 571.619 511.126C573.222 513.417 564.289 525.339 556.501 528.884Z" fill="#2B7F51"/>
<path opacity="0.1" d="M556.501 528.884C556.501 528.884 543.674 516.033 543.903 512.663C544.133 509.294 551.572 519.203 551.572 519.203C551.572 519.203 542.529 493.947 546.194 491.199C549.859 488.45 554.669 512.663 554.669 512.663C554.669 512.663 552.244 475.245 558.611 474.403C564.978 473.561 559.912 511.814 559.912 511.814C559.912 511.814 564.519 493.5 569.1 494.525C573.681 495.551 564.239 515.216 564.239 515.216C564.239 515.216 570.016 508.835 571.619 511.126C573.222 513.417 564.289 525.339 556.501 528.884Z" fill="white"/>
<path d="M540.951 536.562H574.756C574.756 536.562 568.025 526.262 565.155 527.569C561.421 529.27 558.653 519.939 554.519 522.15C553.062 522.928 553.776 525.425 552.857 526.43C551.343 528.089 549.415 527.767 547.584 528.68C543.997 530.465 542.72 532.834 540.951 536.562Z" fill="#906035"/>
<path d="M381.253 537.571H338.831C338.831 537.571 347.279 524.645 350.879 526.285C355.565 528.42 359.038 516.711 364.226 519.484C366.053 520.461 365.159 523.594 366.312 524.855C368.213 526.937 370.631 526.534 372.93 527.678C377.43 529.92 379.032 532.891 381.253 537.571Z" fill="#59310C"/>
<path opacity="0.2" d="M381.253 537.571H338.831C338.831 537.571 347.279 524.645 350.879 526.285C355.565 528.42 359.038 516.711 364.226 519.484C366.053 520.461 365.159 523.594 366.312 524.855C368.213 526.937 370.631 526.534 372.93 527.678C377.43 529.92 379.032 532.891 381.253 537.571Z" fill="black"/>
<path d="M343.468 533.966C343.468 533.966 346.253 517.809 344.33 515.44C342.408 513.072 342.071 524.256 342.071 524.256C342.071 524.256 335.61 500.91 331.474 500.787C327.339 500.664 336.384 521.04 336.384 521.04C336.384 521.04 318.711 492.158 313.573 494.848C308.436 497.538 332.072 523.14 332.072 523.14C332.072 523.14 319.144 512.017 316.296 515.158C313.449 518.298 330.648 527.904 330.648 527.904C330.648 527.904 323.064 526.199 323.072 528.724C323.079 531.246 335.875 535.4 343.468 533.966Z" fill="#59310C"/>
<path opacity="0.2" d="M343.468 533.966C343.468 533.966 346.253 517.809 344.33 515.44C342.408 513.072 342.071 524.256 342.071 524.256C342.071 524.256 335.61 500.91 331.474 500.787C327.339 500.664 336.384 521.04 336.384 521.04C336.384 521.04 318.711 492.158 313.573 494.848C308.436 497.538 332.072 523.14 332.072 523.14C332.072 523.14 319.144 512.017 316.296 515.158C313.449 518.298 330.648 527.904 330.648 527.904C330.648 527.904 323.064 526.199 323.072 528.724C323.079 531.246 335.875 535.4 343.468 533.966Z" fill="white"/>
<path d="M356.491 534.726C356.491 534.726 366.6 525.78 366.585 523.27C366.57 520.759 360.593 527.77 360.593 527.77C360.593 527.77 368.466 509.444 365.872 507.237C363.279 505.029 358.596 522.775 358.596 522.775C358.596 522.775 362.116 495.121 357.431 494.203C352.746 493.286 354.746 521.903 354.746 521.903C354.746 521.903 352.169 508.101 348.723 508.652C345.277 509.202 351.378 524.23 351.378 524.23C351.378 524.23 347.384 519.229 346.09 520.855C344.794 522.48 350.874 531.737 356.491 534.726Z" fill="#0C592F"/>
<path opacity="0.2" d="M356.491 534.726C356.491 534.726 366.6 525.78 366.585 523.27C366.57 520.759 360.593 527.77 360.593 527.77C360.593 527.77 368.466 509.444 365.872 507.237C363.279 505.029 358.596 522.775 358.596 522.775C358.596 522.775 362.116 495.121 357.431 494.203C352.746 493.286 354.746 521.903 354.746 521.903C354.746 521.903 352.169 508.101 348.723 508.652C345.277 509.202 351.378 524.23 351.378 524.23C351.378 524.23 347.384 519.229 346.09 520.855C344.794 522.48 350.874 531.737 356.491 534.726Z" fill="#0C592F"/>
<path d="M362.56 537.571H328.755C328.755 537.571 335.486 527.271 338.356 528.578C342.09 530.279 344.858 520.948 348.992 523.158C350.449 523.937 349.736 526.433 350.654 527.438C352.168 529.098 354.097 528.776 355.927 529.688C359.514 531.474 360.791 533.842 362.56 537.571Z" fill="#59310C"/>
<path d="M463.025 353.038C463.025 353.038 424.097 346.964 416.662 350.15C409.225 353.336 406.782 364.792 406.782 364.792C406.782 364.792 405.458 367.116 409.48 367.403C409.48 367.403 393.003 408.455 398.213 416.323C403.422 424.19 455.904 427.331 463.025 423.484C470.145 419.636 487.25 355.926 463.025 353.038Z" fill="#263238"/>
<path d="M485.954 392.154C485.954 392.154 491.105 404.12 492.268 405.781C493.432 407.443 519.075 419.242 519.075 419.242C519.075 419.242 522.182 418.744 525.339 419.242C528.497 419.741 532.859 421.071 533.254 421.568C533.649 422.068 528.486 429.546 528.486 429.546C528.486 429.546 518.239 430.183 516.969 426.125C516.969 426.125 491.271 416.583 488.28 414.09C485.289 411.597 476.979 396.807 476.979 396.807L485.954 392.154Z" fill="#E4897B"/>
<path d="M478.583 365.965C483.399 368.834 490.942 399.756 492.561 403.421C494.181 407.086 513.863 416.019 513.863 416.019L505.127 424.378C505.127 424.378 485.218 415.56 482.705 413.041C480.192 410.521 470.265 384.867 470.265 384.867L478.583 365.965Z" fill="#003366"/>
<path d="M476.977 436.618C476.977 436.618 558.177 424.958 562.464 442.775C566.996 461.614 501.797 474.32 462.829 475.649C423.862 476.978 412.651 468.418 418.911 420.267L471.48 420.139L476.977 436.618Z" fill="#263238"/>
<path opacity="0.2" d="M476.977 436.618C476.977 436.618 558.177 424.958 562.464 442.775C566.996 461.614 501.797 474.32 462.829 475.649C423.862 476.978 412.651 468.418 418.911 420.267L471.48 420.139L476.977 436.618Z" fill="black"/>
<path d="M457.914 436.033V438.18C457.914 439.628 459.119 440.958 460.577 440.958H539.769C541.227 440.958 542.633 439.628 542.633 438.18V436.033H457.914Z" fill="#263238"/>
<path opacity="0.2" d="M457.914 436.033V438.18C457.914 439.628 459.119 440.958 460.577 440.958H539.769C541.227 440.958 542.633 439.628 542.633 438.18V436.033H457.914Z" fill="white"/>
<path opacity="0.2" d="M487.467 436.033V438.18C487.467 439.628 488.691 440.958 490.139 440.958H539.769C541.227 440.958 542.633 439.628 542.633 438.18V436.033H487.467Z" fill="white"/>
<path d="M490.14 438.988H542.458C544.064 438.988 545.768 437.727 546.261 436.181L558.259 398.545C558.751 396.998 557.855 395.644 556.25 395.644H503.931C502.325 395.644 500.622 396.999 500.129 398.545L488.129 436.134C487.637 437.68 488.535 438.988 490.14 438.988Z" fill="#263238"/>
<path opacity="0.2" d="M490.14 438.988H542.458C544.064 438.988 545.768 437.727 546.261 436.181L558.259 398.545C558.751 396.998 557.855 395.644 556.25 395.644H503.931C502.325 395.644 500.622 396.999 500.129 398.545L488.129 436.134C487.637 437.68 488.535 438.988 490.14 438.988Z" fill="white"/>
<path opacity="0.2" d="M492.111 438.988H542.46C544.066 438.988 545.769 437.727 546.263 436.181L558.261 398.545C558.753 396.998 557.856 395.644 556.251 395.644H505.903C504.297 395.644 502.593 396.999 502.1 398.545L490.101 436.133C489.609 437.679 490.505 438.988 492.111 438.988Z" fill="white"/>
<path opacity="0.2" d="M522.724 419.039C522.077 421.546 523.326 423.58 525.51 423.58C527.695 423.58 529.989 421.547 530.634 419.039C531.28 416.532 530.032 414.499 527.848 414.499C525.664 414.5 523.37 416.532 522.724 419.039Z" fill="white"/>
<path d="M434.535 427.085L418.107 427.299L418.421 421.964L434.535 421.616V427.085Z" fill="black"/>
<path d="M466.936 420.912L471.839 420.806L473.596 426.574L466.936 426.661V420.912Z" fill="black"/>
<path d="M464.84 420.958V426.689L437.061 427.052V421.56L464.84 420.958Z" fill="black"/>
<path d="M448.828 425.687L448.746 423.456C448.701 422.213 449.612 421.162 450.778 421.113L455.803 420.902C456.362 420.887 456.907 421.091 457.323 421.5C457.738 421.909 457.978 422.465 458.002 423.068L458.084 425.298C458.129 426.54 457.218 427.591 456.052 427.641L451.027 427.852C450.999 427.853 450.971 427.854 450.944 427.854C449.813 427.855 448.873 426.9 448.828 425.687ZM456.016 426.702C456.695 426.673 457.227 426.06 457.2 425.336L457.118 423.106C457.105 422.755 456.964 422.43 456.722 422.191C456.48 421.954 456.164 421.822 455.836 421.844L450.812 422.055C450.132 422.082 449.6 422.696 449.627 423.42L449.709 425.651C449.736 426.376 450.299 426.947 450.991 426.914L456.016 426.702Z" fill="white"/>
<path d="M449.691 424.958H452.211C452.53 424.958 452.79 424.698 452.79 424.379C452.79 424.059 452.53 423.8 452.211 423.8H449.691C449.371 423.8 449.112 424.059 449.112 424.379C449.112 424.698 449.37 424.958 449.691 424.958Z" fill="white"/>
<path d="M478.582 365.965C478.582 365.965 472.247 406.013 474.893 420.335L416.315 422.039C416.315 422.039 423.241 380.665 432.465 365.058C432.465 365.058 447.767 339.507 478.582 365.965Z" fill="#003366"/>
<path opacity="0.6" d="M478.582 365.965C478.582 365.965 472.247 406.013 474.893 420.335L416.315 422.039C416.315 422.039 423.241 380.665 432.465 365.058C432.465 365.058 447.767 339.507 478.582 365.965Z" fill="white"/>
<path d="M444.216 357.043C444.216 357.043 453.931 366.537 459.543 364.986C465.165 363.447 467.262 360.58 467.262 360.58C467.262 360.58 462.755 358.594 463.246 357.524C463.302 357.401 463.448 357.178 463.648 356.855C465.322 354.312 471.278 346.179 471.278 346.179L458.495 339.018C458.495 339.018 457.446 341.483 456.164 344.428C454.435 348.333 452.282 353.074 451.546 353.955C450.272 355.504 444.216 357.043 444.216 357.043Z" fill="#E4897B"/>
<path opacity="0.2" d="M456.163 344.427C456.965 348.934 458.929 354.255 463.648 356.853C465.321 354.31 471.278 346.178 471.278 346.178L458.495 339.017C458.495 339.017 457.445 341.482 456.163 344.427Z" fill="black"/>
<path d="M453.601 335.577C453.601 335.577 452.322 339.629 452.571 342.492C452.821 345.356 449.613 346.324 449.212 344.58C449.212 344.58 449.27 348.812 452.018 348.178C452.018 348.178 452.003 351.102 454.473 351.149C454.473 351.149 457.923 346.715 457.548 341.225C457.172 335.735 453.601 335.577 453.601 335.577Z" fill="#263238"/>
<path d="M475.611 321.533C471.444 323.259 472.165 332.94 479.077 341.224C483.333 337.56 485.263 329.111 484.257 325.774C482.647 320.433 479.242 320.044 475.611 321.533Z" fill="#263238"/>
<path d="M481.686 345.104C481.686 345.104 481.686 345.115 481.676 345.134C481.277 346.301 480.827 347.394 480.346 348.386C476.237 356.76 464.418 358.384 459.184 350.103C459.163 350.072 459.143 350.052 459.123 350.021C455.667 344.45 456.965 339.246 458.407 330.229C458.693 328.317 459.419 326.507 460.534 324.923C464.481 319.289 472.239 317.919 477.873 321.866C484.733 326.631 484.323 337.406 481.686 345.104Z" fill="#E4897B"/>
<path d="M471.142 335.648C470.98 336.372 471.234 337.046 471.708 337.149C472.18 337.252 472.688 336.757 472.85 336.035C473.012 335.311 472.766 334.642 472.297 334.529C471.828 334.416 471.351 334.946 471.142 335.648Z" fill="#263238"/>
<path d="M479.367 337.505C479.205 338.228 479.459 338.902 479.933 339.005C480.405 339.108 480.922 338.619 481.089 337.885C481.254 337.152 480.996 336.488 480.522 336.385C480.05 336.282 479.529 336.781 479.367 337.505Z" fill="#263238"/>
<path d="M476.606 337.244C476.973 339.65 477.67 341.995 478.677 344.211C477.103 345.113 475.07 344.077 475.07 344.077L476.606 337.244Z" fill="#DE5753"/>
<path d="M469.476 332.549C469.379 332.54 469.289 332.498 469.219 332.43C469.063 332.247 469.081 331.973 469.262 331.813C470.311 330.877 471.751 330.511 473.118 330.834C473.343 330.892 473.478 331.122 473.42 331.346C473.418 331.357 473.415 331.366 473.412 331.375C473.337 331.6 473.101 331.728 472.872 331.668C471.79 331.431 470.66 331.731 469.836 332.472C469.732 332.549 469.601 332.577 469.476 332.549Z" fill="#263238"/>
<path d="M483.734 335.571C483.571 335.532 483.441 335.405 483.401 335.242C483.179 334.156 482.449 333.241 481.439 332.782C481.213 332.698 481.098 332.449 481.179 332.222C481.261 331.999 481.505 331.882 481.73 331.957C483.019 332.518 483.956 333.669 484.246 335.044C484.302 335.275 484.161 335.508 483.93 335.564C483.928 335.564 483.925 335.565 483.923 335.565C483.861 335.579 483.797 335.581 483.734 335.571Z" fill="#263238"/>
<path d="M471.306 347.417C471.306 347.417 469.009 347.424 473.362 348.177" stroke="#263238" stroke-width="0.645238" stroke-miterlimit="10" stroke-linecap="round" stroke-linejoin="round"/>
<path d="M483.459 328.749C483.459 328.749 486.147 326.688 486.037 324.282C485.877 320.773 483.764 318.436 481.311 316.978C479.479 315.798 476.804 314.912 472.899 314.683C462.634 314.078 457.05 317.158 455.292 322.644C454.203 324.586 454.229 328.192 455.206 331.577C455.211 331.599 455.213 331.618 455.218 331.64L455.222 331.635C455.803 333.619 456.702 335.52 457.903 336.943C464.147 331.518 466.479 327.688 465.5 325.134C465.699 325.07 468.811 322.295 470.19 322.221C472.171 322.115 475.847 324.002 478.828 325.775C480.459 326.744 482.139 325.2 482.139 325.2L483.459 328.749Z" fill="#263238"/>
<path d="M452.579 336.395C452.716 338.689 453.756 340.837 455.472 342.366C457.762 344.364 460.21 342.63 460.671 339.787C461.083 337.223 460.384 333.091 457.561 332.188C454.739 331.286 452.425 333.581 452.579 336.395Z" fill="#E4897B"/>
<path d="M452.57 342.492C452.57 342.492 456.371 327.718 465.762 322.221C475.154 316.724 484.889 320.556 484.889 320.556C484.889 320.556 484.544 316.608 484.258 316.151C483.972 315.693 479.318 314.09 479.318 314.09C479.318 314.09 476.671 310.195 472.992 308.935C469.313 307.675 458.302 307.332 454.474 310.539C450.645 313.746 448.086 320.275 449.709 320.389C451.331 320.504 452.57 320.504 452.57 320.504C452.57 320.504 449.541 330.989 450.837 332.561C450.837 332.561 448.583 339.857 452.57 342.492Z" fill="#003366"/>
<path d="M471.413 477.759C471.466 477.669 471.569 477.621 471.674 477.639C471.767 477.651 471.839 477.727 471.846 477.82C471.935 478.263 472.537 482.18 471.565 483.136C471.348 483.327 471.045 483.388 470.77 483.297C470.301 483.198 469.922 482.857 469.776 482.399C469.637 481.681 469.728 480.937 470.037 480.273C470.409 479.391 470.87 478.548 471.413 477.759ZM471.45 478.551C470.624 479.589 470.195 480.886 470.239 482.212C470.33 482.531 470.601 482.769 470.93 482.817C471.037 482.864 471.162 482.838 471.243 482.754C471.323 482.669 471.386 482.568 471.427 482.459C471.671 481.168 471.679 479.845 471.45 478.551Z" fill="#003366"/>
<path d="M497.329 458.584L481.181 463.953L473.426 466.531L475.222 474.998L482.709 473.567L500.999 470.072L497.329 458.584Z" fill="#E4897B"/>
<path d="M477.312 475.44L476.174 465.473C476.11 464.917 475.6 464.523 475.046 464.603L470.127 465.316C470.127 465.316 463.441 465.803 462.078 467.485C458.098 472.403 460.052 494.514 462.617 495.345C463.556 495.649 464.582 494.372 465.013 493.487C466.378 490.673 468.836 483.286 470.004 480.954C471.369 478.227 474.981 476.953 476.604 476.505C477.071 476.375 477.368 475.923 477.312 475.44Z" fill="#263238"/>
<path d="M471.452 477.683C471.514 477.613 471.615 477.593 471.699 477.633C471.856 477.669 474.505 478.842 474.957 480.336C475.073 480.708 475.032 481.113 474.845 481.456C474.722 481.827 474.359 482.063 473.97 482.026C472.828 481.877 471.515 479.134 471.388 477.899L471.365 477.782C471.383 477.742 471.413 477.707 471.452 477.683ZM474.429 481.147C474.506 480.947 474.514 480.726 474.451 480.52C474.165 479.575 472.688 478.707 471.932 478.318C472.274 479.605 473.351 481.447 474.018 481.529C474.086 481.529 474.226 481.555 474.381 481.253L474.429 481.147Z" fill="#003366"/>
<path opacity="0.2" d="M497.329 458.584L481.181 463.953L482.71 473.567L500.999 470.072L497.329 458.584Z" fill="black"/>
<path d="M485.519 475.068L490.123 475.497L487.373 459.573L482.082 462.354L485.519 475.068Z" fill="#003366"/>
<path opacity="0.6" d="M485.519 475.068L490.123 475.497L487.373 459.573L482.082 462.354L485.519 475.068Z" fill="white"/>
<path opacity="0.2" d="M477.312 475.44L476.174 465.473C476.11 464.917 475.6 464.523 475.046 464.603L470.127 465.316C470.127 465.316 463.441 465.803 462.078 467.485C458.098 472.403 460.052 494.514 462.617 495.345C463.556 495.649 464.582 494.372 465.013 493.487C466.378 490.673 468.836 483.286 470.004 480.954C471.369 478.227 474.981 476.953 476.604 476.505C477.071 476.375 477.368 475.923 477.312 475.44Z" fill="white"/>
<path d="M514.566 512.994C514.566 512.994 452.635 425.098 429.5 430C423.196 419.39 399.363 455.502 411.09 466.788C422.816 478.075 437.551 474.038 437.551 474.038C437.551 474.038 437.224 473.622 427.532 460.382C427.532 460.382 471.081 526.358 508.776 523.416L514.566 512.994Z" fill="#263238"/>
<path d="M535.571 528.085C535.466 528.088 535.369 528.026 535.331 527.929C535.292 527.843 535.317 527.741 535.392 527.686C535.719 527.375 538.711 524.775 540.038 525.087C540.316 525.169 540.529 525.393 540.597 525.674C540.765 526.123 540.678 526.628 540.37 526.994C539.837 527.495 539.158 527.816 538.431 527.907C537.486 528.062 536.527 528.122 535.571 528.085ZM536.22 527.629C537.538 527.774 538.865 527.446 539.963 526.703C540.184 526.455 540.241 526.099 540.107 525.795C540.089 525.68 540 525.587 539.887 525.564C539.771 525.542 539.653 525.542 539.539 525.566C538.316 526.047 537.192 526.747 536.22 527.629Z" fill="#003366"/>
<path d="M535.485 528.092C535.393 528.076 535.323 528.002 535.311 527.909C535.259 527.757 534.836 524.892 535.86 523.713C536.114 523.416 536.477 523.235 536.867 523.21C537.246 523.116 537.64 523.297 537.815 523.645C538.298 524.691 536.679 527.265 535.702 528.031L535.616 528.113C535.572 528.119 535.526 528.111 535.485 528.092ZM536.827 523.726C536.616 523.767 536.425 523.878 536.285 524.042C535.638 524.788 535.692 526.499 535.766 527.347C536.672 526.372 537.655 524.478 537.369 523.871C537.333 523.813 537.28 523.681 536.941 523.71L536.827 523.726Z" fill="#003366"/>
<path d="M506.447 522.272L521.176 530.797L528.249 534.892L533.395 527.932L527.358 523.277L512.611 511.906L506.447 522.272Z" fill="#E4897B"/>
<path d="M532.339 526.074L525.635 533.536C525.26 533.952 525.305 534.595 525.733 534.957L529.529 538.166C529.529 538.166 534.328 542.847 536.49 542.751C542.811 542.469 558.063 526.342 556.983 523.871C556.588 522.966 554.951 523.045 554.003 523.31C550.992 524.154 543.834 527.214 541.313 527.887C538.367 528.674 535.018 526.816 533.607 525.899C533.199 525.635 532.664 525.714 532.339 526.074Z" fill="#263238"/>
<path opacity="0.2" d="M506.447 522.272L521.176 530.797L527.358 523.277L512.611 511.906L506.447 522.272Z" fill="black"/>
<path opacity="0.2" d="M532.339 526.074L525.635 533.536C525.26 533.952 525.305 534.595 525.733 534.957L529.529 538.166C529.529 538.166 534.328 542.847 536.49 542.751C542.811 542.469 558.063 526.342 556.983 523.871C556.588 522.966 554.951 523.045 554.003 523.31C550.992 524.154 543.834 527.214 541.313 527.887C538.367 528.674 535.018 526.816 533.607 525.899C533.199 525.635 532.664 525.714 532.339 526.074Z" fill="white"/>
<path d="M533.562 525.007L526.486 518.674L513.905 529.765L525.577 535.394L533.562 525.007Z" fill="#003366"/>
<path opacity="0.6" d="M533.562 525.007L526.486 518.674L513.905 529.765L525.577 535.394L533.562 525.007Z" fill="#B3CAFF"/>
<path d="M439.421 353.966C439.421 353.966 449.64 381.745 449.112 388.001C448.584 394.258 427.51 440.958 427.51 440.958L410.102 447.956C410.102 447.956 413.718 379.269 439.421 353.966Z" fill="#003366"/>
<path opacity="0.2" d="M439.421 353.966C439.421 353.966 449.64 381.745 449.112 388.001C448.584 394.258 427.51 440.958 427.51 440.958L410.102 447.956C410.102 447.956 413.718 379.269 439.421 353.966Z" fill="black"/>
<path d="M476.318 434.642C476.318 434.642 470.86 421.684 469.113 414.5C467.365 407.316 473.473 370.437 470.19 358.068L478.582 365.965L475.02 412.033L476.318 434.642Z" fill="#003366"/>
<path opacity="0.2" d="M476.318 434.642C476.318 434.642 470.86 421.684 469.113 414.5C467.365 407.316 473.473 370.437 470.19 358.068L478.582 365.965L475.02 412.033L476.318 434.642Z" fill="black"/>
<path d="M414.337 414.5C414.337 414.5 450.565 421.463 444.839 355.266L438.938 354.747C438.938 354.747 442.532 379.899 435.925 396.355C429.317 412.812 413.719 412.033 413.719 412.033L414.337 414.5Z" fill="#263238"/>
<path d="M448.899 385.095L436.739 356.855L433.05 361.708C433.05 361.708 432.396 354.863 434.534 352.877C436.672 350.892 442.578 353.376 444.918 353.967C447.258 354.556 448.899 385.095 448.899 385.095Z" fill="#003366"/>
<path d="M468.065 358.501C468.065 358.501 472.758 372.383 471.996 394.143C471.234 415.903 475.139 414.09 475.139 414.09L475.701 412.032C475.701 412.032 473.506 411.78 473.687 404.451C473.868 397.121 474.82 367.535 471.995 359.766L468.065 358.501Z" fill="#263238"/>
<path d="M470.519 384.292C470.519 384.292 471.633 363.433 465.821 357.341C465.821 357.341 470.213 355.698 471.996 357.341C473.78 358.984 474.214 374.862 470.715 385.095" fill="#003366"/>
<path d="M441.095 392.775C441.095 392.775 446.396 405.088 447.593 406.798C448.791 408.508 475.179 420.65 475.179 420.65C475.179 420.65 478.378 420.137 481.626 420.65C484.875 421.163 489.365 422.532 489.77 423.045C490.177 423.558 484.864 431.254 484.864 431.254C484.864 431.254 474.319 431.909 473.013 427.734C473.013 427.734 446.567 417.914 443.489 415.349C440.412 412.784 431.861 397.563 431.861 397.563L441.095 392.775Z" fill="#E4897B"/>
<path d="M434.535 365.158C440.186 365.175 448.113 399.663 449.627 404.337C451.14 409.012 474.495 419.041 474.495 419.041L467.052 427.855C467.052 427.855 441.713 418.707 438.736 414.5C435.759 410.293 426.737 386.319 426.323 380.783C425.906 375.247 430.793 365.146 434.535 365.158Z" fill="#003366"/>
</svg>
